<svg xmlns="http://www.w3.org/2000/svg" width="31.798" height="36.759" viewBox="0 0 31.798 36.759">
  <g id="Camada_2" data-name="Camada 2" transform="translate(1.006 1.114)">
    <g id="Layer_1" data-name="Layer 1" transform="translate(0.002 0)">
      <path id="Caminho_88" data-name="Caminho 88" d="M29.792,30.26a24.924,24.924,0,0,1-2.23,4.2c-1.459,2.23-3.52,5.011-6.076,5.011-2.274,0-2.856-1.478-5.932-1.459S11.827,39.5,9.56,39.48c-2.556,0-4.51-2.506-5.976-4.754-4.109-6.214-4.541-13.517-2.017-17.4A9.074,9.074,0,0,1,8.846,12.94c2.656,0,4.385,1.485,6.646,1.485s3.5-1.447,6.627-1.447a8.838,8.838,0,0,1,6.659,3.514,7.6,7.6,0,0,0,1.015,13.781Z" transform="translate(-0.002 -4.835)" fill="none" stroke="#272f3e" stroke-width="2" fill-rule="evenodd"/>
      <path id="Caminho_89" data-name="Caminho 89" d="M28.287,5.638A7.6,7.6,0,0,0,29.972,0a8.237,8.237,0,0,0-5.3,2.85A7.013,7.013,0,0,0,22.95,8.337a6.89,6.89,0,0,0,5.337-2.7Z" transform="translate(-8.545 0)" fill="none" stroke="#272f3e" stroke-width="2" fill-rule="evenodd"/>
    </g>
  </g>
</svg>
