<svg xmlns="http://www.w3.org/2000/svg" width="82.259" height="80.254" viewBox="0 0 82.259 80.254">
  <g id="Grupo_83" data-name="Grupo 83" transform="translate(0 0)">
    <path id="Caminho_105" data-name="Caminho 105" d="M81.758,77.314H77.289V72.838H74.608V41.571h2.681V37.094h3.575V31.73h5.378L45.113,5.106,3.984,31.73H9.361v5.364h3.575v4.477h2.681V72.838H12.936v4.476H8.466v5.365H4.891V85.36H85.335V82.678H81.758ZM28.131,72.838V41.571h2.681V37.094h5.363v4.477h2.681V72.838H36.174v4.476H30.812V72.838H28.131Zm13.406,0V41.571h7.15V72.838h-7.15ZM38.856,38.888V37.094H51.369v1.795Zm0,36.638H51.369v1.788H38.856Zm12.513-2.689V41.571h2.681V37.094h5.363v4.477h2.681V72.838H59.413v4.476H54.051V72.838H51.369Zm10.726,2.689H74.608v1.788H62.095Zm9.832-2.689h-7.15V41.571h7.15Zm2.681-33.949H62.095V37.094H74.608ZM45.113,8.3,77.165,29.048h-64.1ZM12.043,34.412V31.73H78.183v2.682H12.043ZM28.13,37.094v1.795H15.618V37.094ZM18.3,41.571H25.45V72.838H18.3ZM15.618,75.526H28.13v1.788H15.618Zm-4.47,7.152V80H79.077v2.683Z" transform="translate(-3.984 -5.106)" fill="#2f3849"/>
    <path id="Caminho_106" data-name="Caminho 106" d="M49.324,15.393a5.694,5.694,0,1,0,5.694,5.694A5.7,5.7,0,0,0,49.324,15.393Zm0,8.706a3.012,3.012,0,1,1,3.012-3.012A3.016,3.016,0,0,1,49.324,24.1Z" transform="translate(-8.194 -6.198)" fill="#2f3849"/>
  </g>
</svg>
