<svg xmlns="http://www.w3.org/2000/svg" width="103.895" height="82.9" viewBox="0 0 103.895 82.9">
  <g id="Grupo_82" data-name="Grupo 82" transform="translate(0 0)">
    <rect id="Retângulo_96" data-name="Retângulo 96" width="4" height="37" transform="translate(11.055 22.478)" fill="#2f3849"/>
    <rect id="Retângulo_97" data-name="Retângulo 97" width="4.307" height="37.682" transform="translate(22.961 22.609)" fill="#2f3849"/>
    <rect id="Retângulo_98" data-name="Retângulo 98" width="4.307" height="37.682" transform="translate(34.887 22.609)" fill="#2f3849"/>
    <rect id="Retângulo_99" data-name="Retângulo 99" width="4.307" height="37.682" transform="translate(46.812 22.609)" fill="#2f3849"/>
    <rect id="Retângulo_100" data-name="Retângulo 100" width="4.307" height="37.682" transform="translate(58.738 22.609)" fill="#2f3849"/>
    <rect id="Retângulo_101" data-name="Retângulo 101" width="4.307" height="37.682" transform="translate(70.664 22.609)" fill="#2f3849"/>
    <rect id="Retângulo_102" data-name="Retângulo 102" width="4.307" height="37.682" transform="translate(82.59 22.609)" fill="#2f3849"/>
    <rect id="Retângulo_103" data-name="Retângulo 103" width="4.307" height="37.682" transform="translate(16.998 22.609)" fill="#2f3849"/>
    <rect id="Retângulo_104" data-name="Retângulo 104" width="4.307" height="37.682" transform="translate(28.924 22.609)" fill="#2f3849"/>
    <rect id="Retângulo_105" data-name="Retângulo 105" width="4.307" height="37.682" transform="translate(40.85 22.609)" fill="#2f3849"/>
    <rect id="Retângulo_106" data-name="Retângulo 106" width="4.307" height="37.682" transform="translate(52.776 22.609)" fill="#2f3849"/>
    <rect id="Retângulo_107" data-name="Retângulo 107" width="4.307" height="37.682" transform="translate(64.701 22.609)" fill="#2f3849"/>
    <rect id="Retângulo_108" data-name="Retângulo 108" width="4.307" height="37.682" transform="translate(76.627 22.609)" fill="#2f3849"/>
    <rect id="Retângulo_109" data-name="Retângulo 109" width="4" height="37" transform="translate(89.055 22.478)" fill="#2f3849"/>
    <path id="Caminho_101" data-name="Caminho 101" d="M94.363,24.42H98.67V13.653A2.153,2.153,0,0,0,96.516,11.5H85.75v4.307h8.613Z" transform="translate(4.687 -11.5)" fill="#2f3849"/>
    <path id="Caminho_102" data-name="Caminho 102" d="M94.863,76.5v8.613H86.25V89.42H97.016a2.153,2.153,0,0,0,2.153-2.153V76.5Z" transform="translate(4.725 -6.519)" fill="#2f3849"/>
    <path id="Caminho_103" data-name="Caminho 103" d="M6.057,15.807H14.67V11.5H3.9A2.153,2.153,0,0,0,1.75,13.653V24.42H6.057Z" transform="translate(-1.75 -11.5)" fill="#2f3849"/>
    <path id="Caminho_104" data-name="Caminho 104" d="M6.057,76.5H1.75V87.266A2.153,2.153,0,0,0,3.9,89.42H14.67V85.113H6.057Z" transform="translate(-1.75 -6.519)" fill="#2f3849"/>
  </g>
</svg>
