<?xml version="1.0" encoding="utf-8"?>
<!-- Generator: Adobe Illustrator 23.0.4, SVG Export Plug-In . SVG Version: 6.00 Build 0)  -->
<svg version="1.1" id="Camada_1" xmlns="http://www.w3.org/2000/svg" xmlns:xlink="http://www.w3.org/1999/xlink" x="0px" y="0px"
	 viewBox="0 0 90.5 90.5" style="enable-background:new 0 0 90.5 90.5;" xml:space="preserve">
<style type="text/css">
	.st0{fill:#25272B;}
	.st1{fill:#00E676;}
</style>
<g id="Grupo_118" transform="translate(-1210.74 -3606.74)">
	<path id="Caminho_80" class="st0" d="M1256,3606.7c25,0,45.3,20.3,45.3,45.3s-20.3,45.3-45.3,45.3c-25,0-45.3-20.3-45.3-45.3
		c0,0,0,0,0,0C1210.7,3627,1231,3606.7,1256,3606.7z"/>
	<g id="Grupo_51" transform="translate(1233 3629)">
		<path id="Caminho_43" class="st1" d="M9.3,8.3l2.4,2c-0.8,0.6-1.5,1.1-2.3,1.7c-0.1,0-0.2,0-0.2,0c-7,1.3-5.6,0.4-6.6-5.8
			C2.4,5.6,3.2,4.8,3.6,4c0.6,0.6,1.2,1.2,1.7,1.8c0.3,0.4,0.5,0.9,0.6,1.3c0.7-0.6,1.3-1,1.8-1.5C17.4-2.7,32-1.7,40.3,7.9
			c2.6,3,4.4,6.6,5.2,10.5c2.7,12.3-5.2,24.5-17.5,27.2c-0.2,0-0.4,0.1-0.6,0.1C14.6,48.3,3.5,40.3,0.5,28.3C0.1,26.9,0,25.5,0,24.1
			c0-0.8,0.8-1.6,1.2-2.4c0.5,0.7,1.4,1.4,1.5,2.2c0.4,4,1.5,7.8,4,11.1c5.3,6.9,12.3,9.8,20.7,7.8c8.2-1.9,13.3-7.2,15.2-15.5
			c1.8-8.4-1.9-17.1-9.3-21.5C26,1.4,16.7,2.1,10.1,7.4C9.8,7.7,9.5,8,9.3,8.3z"/>
		<path id="Caminho_44" class="st1" d="M24.4,15.8c0,0.7,0,1.4,0,2c-0.2,2.1,0.4,4.9-0.7,6c-2,2.1-5.1,3.2-7.8,4.6
			c-0.3,0.2-1.5-0.4-1.6-0.6c-0.1-0.7,0.2-1.4,0.7-1.9c1.4-1,2.8-1.8,4.4-2.5c1.5-0.6,2.5-2.1,2.3-3.8c-0.1-3.5-0.1-7.1,0-10.6
			c0-0.7,0.8-1.4,1.2-2.1c0.5,0.7,1.3,1.3,1.4,2.1C24.5,11.3,24.4,13.6,24.4,15.8z"/>
	</g>
</g>
</svg>
