<?xml version="1.0" encoding="utf-8"?>
<!-- Generator: Adobe Illustrator 23.0.4, SVG Export Plug-In . SVG Version: 6.00 Build 0)  -->
<svg version="1.1" id="Camada_1" xmlns="http://www.w3.org/2000/svg" xmlns:xlink="http://www.w3.org/1999/xlink" x="0px" y="0px"
	 viewBox="0 0 90.5 90.5" style="enable-background:new 0 0 90.5 90.5;" xml:space="preserve">
<style type="text/css">
	.st0{fill:#25272B;}
	.st1{fill:#00E676;}
</style>
<g id="Grupo_116" transform="translate(-622.74 -3606.74)">
	<path id="Caminho_80" class="st0" d="M668,3606.7c25,0,45.3,20.3,45.3,45.3s-20.3,45.3-45.3,45.3s-45.3-20.3-45.3-45.3c0,0,0,0,0,0
		C622.7,3627,643,3606.7,668,3606.7z"/>
	<g id="Grupo_49" transform="translate(645.25 3637.321)">
		<g id="Grupo_48">
			<path id="Caminho_37" class="st1" d="M12.1,29.1c-1.4-0.1-2.8-0.2-4.1-0.5C3.6,28,0.4,24.4,0,20.1C-0.3,15,2.1,11.2,6.8,9.8
				c1.3-0.3,2.3-1.3,2.7-2.6c2.2-5.8,8.8-8.7,14.6-6.4c0.7,0.3,1.4,0.6,2.1,1.1c0.9,0.5,2,0.8,3,0.7c3.9-0.4,7.7,1.7,9.4,5.3
				c0.6,1.4,1.5,2.6,2.7,3.5c3.7,2.8,4.5,6.5,3.4,10.8c-1,4-4.7,6.6-9.3,6.9c-1.7,0.1-3.4,0.1-5,0c-0.6-0.1-1.1-0.8-1.6-1.2
				c0.5-0.4,1.1-1.1,1.6-1.1c1.6-0.2,3.3,0,4.9-0.1c3.6,0.1,6.7-2.4,7.4-5.9c0.7-3.4-0.9-6.7-3.9-8.4c-0.7-0.4-1.3-1.1-1.6-1.9
				c-1.6-4.2-4.2-5.9-8.6-5.3c-1.1,0.2-2.2-0.1-3-0.7c-5.7-4.1-12.6-1.5-14.4,5.2c-0.1,1.2-1.1,2.1-2.3,2.1
				c-3.8,0.4-6.7,3.7-6.6,7.5c0.1,4,3.3,7.2,7.2,7.4c1.7,0.1,3.5-0.1,5.2,0.1c0.6,0.1,1.1,0.7,1.7,1c-0.6,0.4-1.1,1.1-1.7,1.3
				c-0.9,0.1-1.7,0.2-2.6,0.1L12.1,29.1z"/>
			<path id="Caminho_38" class="st1" d="M23.8,25.2c0.5-0.5,1-1,1.6-1.4c0.4-0.2,0.9-0.3,1.4-0.1c0.3,0.4,0.4,0.9,0.3,1.3
				c-1.2,1.5-2.4,3-3.8,4.3c-0.3,0.3-1.4,0-1.8-0.3c-1-0.9-1.9-1.8-2.7-2.9c-0.4-0.6-0.7-1.8-0.4-2.2c0.8-1,1.5,0,2.1,0.6
				c0.2,0.2,0.3,0.3,0.8,0.7c0-2,0-3.6,0-5.3c-0.1-0.9-0.1-1.7,0.1-2.6c0.3-0.7,0.8-1.3,1.3-1.9c0.4,0.6,1,1.2,1.1,1.9
				C23.9,19.8,23.8,22.3,23.8,25.2z"/>
		</g>
	</g>
</g>
</svg>
