<?xml version="1.0" encoding="utf-8"?>
<!-- Generator: Adobe Illustrator 23.0.4, SVG Export Plug-In . SVG Version: 6.00 Build 0)  -->
<svg version="1.1" id="Camada_1" xmlns="http://www.w3.org/2000/svg" xmlns:xlink="http://www.w3.org/1999/xlink" x="0px" y="0px"
	 viewBox="0 0 90.5 90.5" style="enable-background:new 0 0 90.5 90.5;" xml:space="preserve">
<style type="text/css">
	.st0{fill:#25272B;}
	.st1{fill:#00E676;}
</style>
<g id="Grupo_117" transform="translate(-622.74 -3890.74)">
	<path id="Caminho_80" class="st0" d="M668,3890.7c25,0,45.3,20.3,45.3,45.3s-20.3,45.3-45.3,45.3s-45.3-20.3-45.3-45.3c0,0,0,0,0,0
		C622.7,3911,643,3890.7,668,3890.7z"/>
	<g id="Grupo_8" transform="translate(647.998 3911)">
		<g id="Grupo_3" transform="translate(0.377 37.417)">
			<g id="Grupo_2">
				<rect id="Retângulo_20" x="0" y="0" class="st1" width="4.2" height="2.1"/>
			</g>
		</g>
		<g id="Grupo_5" transform="translate(9.377 39.583)">
			<g id="Grupo_4">
				<rect id="Retângulo_21" x="0" y="0" class="st1" width="6.2" height="2.1"/>
			</g>
		</g>
		<g id="Grupo_7" transform="translate(0.002)">
			<g id="Grupo_6" transform="translate(0)">
				<path id="Caminho_7" class="st1" d="M49.1,44.5L37.5,33V7.3c0-1.7-1.4-3.1-3.1-3.1H13.4c-0.6-2.8-3.3-4.6-6.1-4.1
					c-2,0.4-3.6,2-4.1,4.1H3.1C1.4,4.2,0,5.6,0,7.3c0,0,0,0,0,0v39.6C0,48.6,1.4,50,3.1,50c0,0,0,0,0,0h31.2c1.7,0,3.1-1.4,3.1-3.1
					V42l7,7c1.2,1.3,3.3,1.3,4.5,0.1C50.3,47.9,50.4,45.9,49.1,44.5C49.1,44.6,49.1,44.6,49.1,44.5L49.1,44.5z M8.3,2.1
					c1.3,0,2.5,0.8,2.9,2.1H5.4C5.8,2.9,7,2.1,8.3,2.1z M35.4,46.9c0,0.6-0.5,1-1,1H3.1c-0.6,0-1-0.5-1-1V7.3c0-0.6,0.5-1,1-1h8.3
					v11.5c0,0.6-0.4,1.1-1,1.1c-0.6,0-1.1-0.4-1.1-1c0,0,0,0,0-0.1V8.3H7.3v9.4c0,1.7,1.4,3.1,3.1,3.1s3.1-1.4,3.1-3.1V6.2h20.8
					c0.6,0,1,0.5,1,1v23.6l-3.1-3.1V9.4c0-0.6-0.5-1-1-1H15.6v2.1h14.6v15.5L24.4,23c-0.4-0.2-0.8-0.1-1.1,0.1l0,0l-3,2.2l-1.7-5.8
					c-0.2-0.6-0.7-0.9-1.3-0.7c-0.2,0-0.3,0.1-0.5,0.3l-2.8,2.8H6.3c-0.6,0-1,0.5-1,1l0,0v21.9c0,0.6,0.5,1,1,1h25c0.6,0,1-0.5,1-1
					v-8l3.1,3.1V46.9z M27.3,28.3l-1-2l2,1L27.3,28.3z M30.2,34.7v9H7.3V24h7.3c0.3,0,0.5-0.1,0.7-0.3l1.9-1.9l1.6,5.6
					c0.2,0.6,0.7,0.9,1.3,0.7c0.1,0,0.2-0.1,0.3-0.2l3.2-2.4l2.5,5l0,0c0,0.1,0.1,0.2,0.2,0.3L30.2,34.7z M28.5,30.1l1.6-1.6
					l13.8,13.8l-1.6,1.6L28.5,30.1z M47.6,47.6c-0.4,0.4-1.1,0.4-1.6,0l-2.3-2.3l1.6-1.6l2.3,2.3C48,46.5,48,47.2,47.6,47.6z"/>
			</g>
		</g>
	</g>
</g>
</svg>
