<svg xmlns="http://www.w3.org/2000/svg" xmlns:xlink="http://www.w3.org/1999/xlink" width="90.521" height="90.521" viewBox="0 0 90.521 90.521">
  <defs>
    <clipPath id="clip-path">
      <rect id="Ret칙ngulo_69" data-name="Ret칙ngulo 69" width="41" height="50" transform="translate(0 3059.496)" fill="#00e676"/>
    </clipPath>
  </defs>
  <g id="Grupo_119" data-name="Grupo 119" transform="translate(-1211.74 -3890.74)">
    <path id="Caminho_80" data-name="Caminho 80" d="M45.26,0A45.26,45.26,0,1,1,0,45.26,45.26,45.26,0,0,1,45.26,0Z" transform="translate(1211.74 3890.74)" fill="#25272B"/>
    <g id="Grupo_de_m치scara_1" data-name="Grupo de m치scara 1" transform="translate(1237 851.504)" clip-path="url(#clip-path)">
      <g id="text-document" transform="translate(2.45 3059.396)">
        <path id="Caminho_107" data-name="Caminho 107" d="M329.035,0H304.2a3.03,3.03,0,0,0-3.025,3.026V46.315a3.029,3.029,0,0,0,3.025,3.026H334.62a3.028,3.028,0,0,0,3.025-3.026V9.356Zm.714,4.528,3.774,4.1h-3.774ZM335.1,46.315a.487.487,0,0,1-.486.485H304.2a.486.486,0,0,1-.484-.485V3.026a.484.484,0,0,1,.484-.484h23.005V9.9a1.271,1.271,0,0,0,1.272,1.269H335.1ZM308.2,13.514h21.577a.952.952,0,1,1,0,1.9H308.2a.952.952,0,0,1,0-1.9Zm22.529,7.349a.952.952,0,0,1-.952.952H308.2a.952.952,0,0,1,0-1.9h21.577A.952.952,0,0,1,330.728,20.863Zm0,6.188a.952.952,0,0,1-.952.952H308.2a.952.952,0,0,1,0-1.9h21.577A.952.952,0,0,1,330.728,27.051Zm0,6.293a.952.952,0,0,1-.952.952H308.2a.952.952,0,0,1,0-1.9h21.577A.952.952,0,0,1,330.728,33.344Z" transform="translate(-301.176)" fill="#00e676"/>
      </g>
    </g>
  </g>
</svg>
