<?xml version="1.0" encoding="utf-8"?>
<!-- Generator: Adobe Illustrator 23.0.4, SVG Export Plug-In . SVG Version: 6.00 Build 0)  -->
<svg version="1.1" id="Camada_1" xmlns="http://www.w3.org/2000/svg" xmlns:xlink="http://www.w3.org/1999/xlink" x="0px" y="0px"
	 viewBox="0 0 90.5 90.5" style="enable-background:new 0 0 90.5 90.5;" xml:space="preserve">
<style type="text/css">
	.st0{fill:#25272B;}
	.st1{fill:#00E676;}
</style>
<g id="Grupo_117" transform="translate(-622.74 -4165.74)">
	<path id="Caminho_80" class="st0" d="M668,4165.7c25,0,45.3,20.3,45.3,45.3c0,25-20.3,45.3-45.3,45.3s-45.3-20.3-45.3-45.3
		c0,0,0,0,0,0C622.7,4186,643,4165.7,668,4165.7z"/>
	<g id="Grupo_26" transform="translate(637.676 4181.001)">
		<path id="Caminho_21" class="st1" d="M36.2,50c-1.9,0-3.5,1.6-3.5,3.5s1.6,3.5,3.5,3.5s3.5-1.6,3.5-3.5S38.1,50,36.2,50z M36.2,55
			c-0.8,0-1.5-0.7-1.5-1.5s0.7-1.5,1.5-1.5s1.5,0.7,1.5,1.5S37,55,36.2,55z"/>
		<path id="Caminho_22" class="st1" d="M40.7,37c2.2,0,4-1.8,4-4s-1.8-4-4-4s-4,1.8-4,4S38.5,37,40.7,37z M40.7,31c1.1,0,2,0.9,2,2
			c0,1.1-0.9,2-2,2s-2-0.9-2-2C38.7,31.9,39.6,31,40.7,31z"/>
		<path id="Caminho_23" class="st1" d="M16.7,12c0.3,0,0.5-0.1,0.7-0.3l2-2c0.4-0.4,0.4-1,0-1.4c-0.4-0.4-1-0.4-1.4,0l-2,2
			c-0.4,0.4-0.4,1,0,1.4C16.2,11.9,16.4,12,16.7,12z"/>
		<path id="Caminho_24" class="st1" d="M52.7,29.7c0-0.9-0.3-1.7-1-2.3l-0.6-0.6c1.9-1.6,2-4.5,0.4-6.3c-0.9-1-2.1-1.5-3.4-1.5
			c-0.2,0-0.4,0-0.5,0c0-0.2,0-0.4,0-0.5c0-2.5-2-4.5-4.5-4.5c-0.2,0-0.4,0-0.5,0c0-0.2,0-0.4,0-0.5c0-2.5-2-4.5-4.5-4.5
			c-0.2,0-0.4,0-0.5,0c0-0.2,0-0.4,0-0.5c0-2.5-2-4.5-4.5-4.5c-1.3,0-2.5,0.6-3.4,1.5L29,4.7L25.3,1c-1.3-1.3-3.4-1.3-4.7,0
			L8.3,13.3c-1.3,1.3-1.3,3.4,0,4.7l3.8,3.8l4.9,4.9c-2.2,1.2-2.9,3.9-1.7,6.1c0.4,0.6,0.8,1.2,1.4,1.5c0.1,0.1,0.1,0.2,0.2,0.2
			l10.8,10.7V47h-2v13h26V47h-2v-3c3.3-2.8,4-7.7,1.5-11.3l0.6-0.6C52.3,31.5,52.7,30.6,52.7,29.7z M50.7,23.5
			c0,0.8-0.3,1.5-0.9,1.9l-3.5-3.5c0.9-1.1,2.4-1.2,3.5-0.4C50.3,22,50.7,22.7,50.7,23.5L50.7,23.5z M45.7,18.5
			c0,0.8-0.3,1.5-0.9,1.9l-3.5-3.5c0.9-1.1,2.4-1.2,3.5-0.4C45.3,17,45.7,17.7,45.7,18.5L45.7,18.5z M40.7,13.5
			c0,0.8-0.3,1.5-0.9,1.9l-3.5-3.5c0.9-1.1,2.4-1.2,3.5-0.4C40.3,12,40.7,12.7,40.7,13.5L40.7,13.5z M33.2,6c1.4,0,2.5,1.1,2.5,2.5
			c0,0.8-0.3,1.5-0.9,1.9l-3.5-3.5C31.7,6.3,32.4,6,33.2,6z M9.7,16.5c-0.5-0.5-0.5-1.3,0-1.8L22,2.4c0.2-0.2,0.4-0.3,0.6-0.3
			c0.2,0,0.4,0,0.5,0c0.1,0,0.2,0,0.2,0c0.2,0.1,0.3,0.2,0.4,0.3l2.3,2.3L12,18.9L9.7,16.5z M27.6,6.1l1.2,1.2l5,5l0.6,0.6l4.4,4.4
			l0.6,0.6l4.4,4.4l0.6,0.6l5,5l0.9,0.9c0.5,0.5,0.5,1.3,0,1.8l-0.4,0.4l0,0L38,43c-0.5,0.5-1.3,0.5-1.8,0l-8-8h1
			c2.5,0,4.5-2,4.5-4.5s-2-4.5-4.5-4.5h-10l-5.7-5.7L27.6,6.1z M18.6,28.1l0.4,0c0,0,0.1,0,0.1,0h10c1.4,0,2.5,1.1,2.5,2.5
			S30.6,33,29.2,33h-10c-1.4,0-2.5-1.1-2.5-2.5C16.7,29.3,17.5,28.3,18.6,28.1L18.6,28.1z M27.7,58v-9h8.4c3.1,0,5.6,2.5,5.6,5.6V58
			H27.7z M49.7,58h-6v-3.4c0-2.1-0.9-4.1-2.5-5.6h8.5V58z M49.7,34.1c1.8,2.9,1.1,6.6-1.6,8.6L47.7,43v4h-18v-2.7L29.3,44
			c0,0-0.1-0.1-0.2-0.1L20.3,35h5.1l9.4,9.4c1.3,1.3,3.4,1.3,4.7,0L49.7,34.1z"/>
	</g>
</g>
</svg>
