<?xml version="1.0" encoding="utf-8"?>
<!-- Generator: Adobe Illustrator 23.0.4, SVG Export Plug-In . SVG Version: 6.00 Build 0)  -->
<svg version="1.1" id="Camada_1" xmlns="http://www.w3.org/2000/svg" xmlns:xlink="http://www.w3.org/1999/xlink" x="0px" y="0px"
	 viewBox="0 0 90.5 90.5" style="enable-background:new 0 0 90.5 90.5;" xml:space="preserve">
<style type="text/css">
	.st0{fill:#25272B;}
	.st1{fill:#00E676;}
</style>
<g id="Grupo_121" transform="translate(-1210.74 -4144.74)">
	<path id="Caminho_80" class="st0" d="M1256,4144.7c25,0,45.3,20.3,45.3,45.3c0,25-20.3,45.3-45.3,45.3c-25,0-45.3-20.3-45.3-45.3
		c0,0,0,0,0,0C1210.7,4165,1231,4144.7,1256,4144.7z"/>
	<g id="Grupo_120">
		<path id="Caminho_25" class="st1" d="M1261,4208.6c-2.4,0.3-4.9,0.3-7.4,0c-0.2,0.7-0.4,1.4-0.6,2.1c-0.1,0.8-0.6,1.6-1.3,2.1
			c-0.5,0.4-1.1,0.6-1.8,0.8c-1.2,0.1-2.5,0.1-3.7,0c-1.4-0.1-2.6-1.2-2.9-2.5c-0.6-2.1-1.3-4.1-1.9-6.2c-0.1-0.4-0.3-0.6-0.7-0.8
			c-3.1-1.4-6-3.3-8.5-5.5c-1.4-1.1-2.1-2.7-2.2-4.4c0-2.1,0-4.1,0.1-6.2c0.2-1.9,1.6-3.5,3.6-3.8c0.3-0.1,0.6-0.1,0.9-0.1
			c0.7,0.1,1.5-0.2,1.9-0.9c0.6-0.8,1.2-1.6,1.8-2.4c0.1-0.2,0.1-0.4,0.1-0.6c-0.3-0.9-0.8-1.7-1.5-2.4c-0.8-0.8-1-2-0.6-3.1
			c0.4-1.2,1.5-2,2.7-2.1c2.2-0.2,4.4,0.1,6.4,1.1c0.3,0.1,0.6,0.1,0.8,0c2.5-1.3,5.2-2.2,8.1-2.5c3.9-0.5,7.9,0,11.6,1.4
			c4,1.5,7.5,4.1,10,7.6c1.2,1.6,2,3.4,2.5,5.3c0.1,0.3,0.3,0.6,0.7,0.7c2.2,0.5,3.6,2.7,3.1,4.8c-0.3,1.6-1.6,2.8-3.2,3.1
			c-0.3,0-0.6,0.2-0.6,0.5c-0.7,2.6-2,4.9-3.8,6.9c-0.3,0.3-0.5,0.7-0.6,1c-0.9,2.8-1.7,5.7-2.6,8.6c-0.4,1.6-1.9,2.7-3.6,2.6
			c-1.1,0-2.3,0-3.4-0.1c-1.2-0.2-2.2-1-2.5-2.2C1261.5,4210.5,1261.2,4209.6,1261,4208.6z M1232.9,4191.4L1232.9,4191.4
			c0,0.8,0,1.6,0,2.4c0,1.1,0.4,2.1,1.3,2.7c2.5,2.1,5.2,3.8,8.1,5.1c0.9,0.4,1.6,1.2,1.8,2.1c0.6,2.1,1.3,4.3,1.9,6.4
			c0.1,0.4,0.4,0.7,0.8,0.6c0.8,0,1.6,0,2.4,0c0.4,0.1,0.8-0.2,0.9-0.7c0.3-1,0.6-2.1,0.9-3.1c0.2-1,1.1-1.6,2.1-1.4
			c0.1,0,0.1,0,0.2,0c2.6,0.5,5.2,0.5,7.8,0c1-0.3,2.1,0.2,2.4,1.2c0,0.1,0.1,0.3,0.1,0.4c0.3,1,0.6,1.9,0.8,2.9
			c0.1,0.4,0.5,0.7,0.9,0.6c0.8,0,1.6,0,2.4,0c0.4,0.1,0.8-0.2,0.9-0.7c0.9-2.9,1.7-5.9,2.7-8.8c0.2-0.6,0.5-1.1,0.9-1.6
			c1.1-1.2,1.9-2.5,2.6-4c0.4-1.1,0.7-2.2,1.1-3.3c0.1-0.7,0.8-1.3,1.5-1.2c0.3,0,0.6,0,0.9,0c0.6-0.1,1-0.5,1.1-1.1
			c0-0.6-0.4-1.1-1-1.2c-0.4-0.1-0.7-0.1-1.1-0.1c-0.6,0-1.1-0.4-1.3-1c-0.1-0.3-0.1-0.5-0.2-0.8c-0.5-2.3-1.5-4.4-3-6.2
			c-3.4-4.2-8.5-6.7-13.9-7c-4.1-0.4-8.3,0.5-11.9,2.6c-0.8,0.5-1.7,0.5-2.5,0c-1.5-0.8-3.2-1.2-4.9-1c-0.2,0-0.4,0.1-0.6,0.2
			c0.1,0.2,0.1,0.4,0.3,0.6c1,1,1.6,2.3,2,3.7c0.2,0.6,0.2,1.3-0.2,1.8c-1,1.7-2.3,3.2-3.7,4.6c-0.4,0.4-0.9,0.6-1.4,0.6
			c-0.5,0-1,0-1.5,0c-0.8-0.1-1.5,0.6-1.6,1.4c0,0.1,0,0.2,0,0.2C1232.9,4189.6,1232.9,4190.5,1232.9,4191.4L1232.9,4191.4z"/>
		<circle id="Elipse_8" class="st1" cx="1242.7" cy="4184.2" r="1.6"/>
		<path id="Retângulo_31" class="st1" d="M1254.3,4175.4h6.7c0.4,0,0.8,0.4,0.8,0.8l0,0c0,0.4-0.4,0.8-0.8,0.8h-6.7
			c-0.4,0-0.8-0.4-0.8-0.8l0,0C1253.6,4175.8,1253.9,4175.4,1254.3,4175.4z"/>
		<path id="Caminho_26" class="st1" d="M1251.5,4162.5c0,3.4,2.7,6.1,6.1,6.1c3.4,0,6.1-2.7,6.1-6.1c0-3.4-2.7-6.1-6.1-6.1
			C1254.3,4156.4,1251.5,4159.1,1251.5,4162.5z M1262.6,4162.5c0,2.8-2.2,5-5,5s-5-2.2-5-5c0-2.8,2.2-5,5-5c0,0,0,0,0,0
			C1260.4,4157.5,1262.6,4159.7,1262.6,4162.5z"/>
		<path id="Caminho_27" class="st1" d="M1257,4159.2v0.6c-0.9,0.3-1.3,1.3-1,2.1c0.2,0.7,0.9,1.1,1.6,1.1c0.3,0,0.6,0.2,0.6,0.6
			c0,0.3-0.2,0.6-0.6,0.6c-0.3,0-0.6-0.2-0.7-0.4c-0.2-0.2-0.5-0.3-0.8-0.1s-0.3,0.5-0.1,0.8c0,0,0,0,0,0c0.3,0.3,0.6,0.6,1,0.7v0.6
			c0,0.3,0.2,0.6,0.6,0.6c0.3,0,0.6-0.2,0.6-0.6c0,0,0,0,0,0v-0.6c0.9-0.3,1.3-1.3,1-2.1c-0.2-0.7-0.9-1.1-1.6-1.1
			c-0.3,0-0.6-0.2-0.6-0.6s0.2-0.6,0.6-0.6c0.2,0,0.4,0.1,0.6,0.3c0.2,0.2,0.6,0.2,0.8,0c0.2-0.2,0.2-0.6,0-0.8
			c-0.2-0.2-0.5-0.4-0.8-0.5v-0.6c0-0.3-0.2-0.6-0.6-0.6C1257.2,4158.6,1257,4158.8,1257,4159.2
			C1257,4159.1,1257,4159.2,1257,4159.2L1257,4159.2z"/>
	</g>
</g>
</svg>
