<svg xmlns="http://www.w3.org/2000/svg" xmlns:xlink="http://www.w3.org/1999/xlink" width="414" height="518" viewBox="0 0 414 518">
  <defs>
    <linearGradient id="linear-gradient" x1="0.5" x2="0.5" y2="1" gradientUnits="objectBoundingBox">
      <stop offset="0" stop-color="#00e676"/>
      <stop offset="1" stop-color="#2badbb"/>
    </linearGradient>
    <linearGradient id="linear-gradient-2" x1="-8.09" y1="-15.588" x2="17.236" y2="6.384" xlink:href="#linear-gradient"/>
    <linearGradient id="linear-gradient-5" x1="-8.09" y1="-15.588" x2="17.236" y2="6.384" gradientUnits="objectBoundingBox">
      <stop offset="0" stop-color="#00e676"/>
      <stop offset="0.933" stop-color="#1ebfa6"/>
      <stop offset="1" stop-color="#2badbb"/>
    </linearGradient>
  </defs>
  <g id="Grupo_154" data-name="Grupo 154" transform="translate(-1217 -2763)">
    <rect id="Ret창ngulo_164" data-name="Ret창ngulo 164" width="363" height="465" rx="16" transform="translate(1268 2816)" fill="url(#linear-gradient)"/>
    <g id="Grupo_151" data-name="Grupo 151">
      <rect id="Ret창ngulo_163" data-name="Ret창ngulo 163" width="386" height="493" rx="16" transform="translate(1217 2763)" fill="#25272b"/>
      <g id="hand" transform="translate(1290.425 2899.544)">
        <path id="Caminho_130" data-name="Caminho 130" d="M226.353,337.824a4.471,4.471,0,1,0-6.322,0A4.475,4.475,0,0,0,226.353,337.824Zm0,0" transform="translate(-121.194 -182.62)" fill="url(#linear-gradient-2)"/>
        <path id="Caminho_131" data-name="Caminho 131" d="M188.449,49.149A49.149,49.149,0,1,0,237.6,0,49.206,49.206,0,0,0,188.449,49.149Zm89.362,0A40.213,40.213,0,1,1,237.6,8.937,40.259,40.259,0,0,1,277.811,49.149Zm0,0" transform="translate(-104.449)" fill="url(#linear-gradient-2)"/>
        <path id="Caminho_132" data-name="Caminho 132" d="M51.966,344.934a4.467,4.467,0,0,0,6.306.037L79.934,323.63a13.5,13.5,0,0,0,3.181-13.865l4.66-4.494a13.325,13.325,0,0,1,9.3-3.759h59.4a40,40,0,0,0,28.048-11.395c.311-.3-2.359,2.842,40.522-48.409a17.873,17.873,0,0,0-27.2-23.2l-26.366,27.1a17.957,17.957,0,0,0-13.892-6.652H107.77a57.645,57.645,0,0,0-22.375-4.468c-21.516,0-40.3,9.937-50.384,28.569a13.347,13.347,0,0,0-11.95,3.7L1.8,288.081a4.469,4.469,0,0,0-.007,6.3ZM85.393,243.427a48.775,48.775,0,0,1,19.67,4.094,4.459,4.459,0,0,0,1.791.375h50.739a8.936,8.936,0,1,1,0,17.872H121.139a4.468,4.468,0,0,0,0,8.935h36.455A17.845,17.845,0,0,0,175.308,254.5c25.5-26.217,29.1-29.9,29.255-30.084a8.938,8.938,0,1,1,13.645,11.547l-40.076,47.909a31.112,31.112,0,0,1-21.657,8.71h-59.4a22.214,22.214,0,0,0-15.51,6.264l-3.8,3.664-35-35c8.181-15.348,23.532-24.077,42.626-24.077Zm-56.01,29.651a4.457,4.457,0,0,1,5.533-.628c.773.471-1.447-1.55,38.7,38.541a4.477,4.477,0,0,1,.024,6.3L55.173,335.481l-43.9-44.238Zm0,0" transform="translate(-0.501 -117.427)" fill="url(#linear-gradient-2)"/>
        <path id="Caminho_133" data-name="Caminho 133" d="M275.009,44.458v5.236a13.4,13.4,0,0,0,4.468,26.041,4.468,4.468,0,1,1,0,8.935c-1.908,0-3.97-1.2-5.8-3.38a4.468,4.468,0,1,0-6.84,5.751,18.532,18.532,0,0,0,8.174,5.819v5.215a4.468,4.468,0,1,0,8.935,0V92.838A13.4,13.4,0,0,0,279.477,66.8a4.468,4.468,0,0,1,0-8.937,7.174,7.174,0,0,1,4.832,2.336,4.468,4.468,0,1,0,6.215-6.421,17.262,17.262,0,0,0-6.58-4.113v-5.2a4.468,4.468,0,1,0-8.935,0Zm0,0" transform="translate(-147.222 -22.116)" fill="url(#linear-gradient-5)"/>
      </g>
    </g>
  </g>
</svg>
