<svg xmlns="http://www.w3.org/2000/svg" width="99.098" height="68.211" viewBox="0 0 99.098 68.211">
  <g id="Grupo_121" data-name="Grupo 121" transform="translate(0.5 0.5)">
    <path id="Caminho_98" data-name="Caminho 98" d="M10.174,0H87.923A10.2,10.2,0,0,1,98.1,10.174V57.037A10.206,10.206,0,0,1,87.923,67.211H10.174A10.206,10.206,0,0,1,0,57.037V10.174A10.2,10.2,0,0,1,10.174,0ZM2.719,15.157H95.378V10.174a7.491,7.491,0,0,0-7.455-7.468H10.174a7.491,7.491,0,0,0-7.455,7.468Zm92.659,2.719H2.719V57.037a7.49,7.49,0,0,0,7.455,7.468H87.923a7.49,7.49,0,0,0,7.455-7.468Z" fill="#272f3e" stroke="#2f3849" stroke-width="1"/>
    <path id="Caminho_99" data-name="Caminho 99" d="M14.117,0A7.422,7.422,0,1,1,10.76,14.038c-.3.143-.6.273-.911.39a7.576,7.576,0,0,1-2.433.417A7.422,7.422,0,1,1,10.76.807,7.262,7.262,0,0,1,14.117,0Zm-5.8,12.047a7.39,7.39,0,0,1,0-9.25,5.033,5.033,0,0,0-.9-.091,4.71,4.71,0,0,0,0,9.419A5,5,0,0,0,8.314,12.047Zm5.8-9.341a4.71,4.71,0,0,0-3.331,8.04,4.655,4.655,0,0,0,3.331,1.379,4.71,4.71,0,0,0,0-9.419Z" transform="translate(68.669 40.917)" fill="#272f3e" stroke="#2f3849" stroke-width="1"/>
    <path id="Caminho_100" data-name="Caminho 100" d="M0,0H38.731V2.706H0Z" transform="translate(50.298 28.687)" fill="#272f3e" stroke="#2f3849" stroke-width="1"/>
  </g>
</svg>
