<svg xmlns="http://www.w3.org/2000/svg" width="31.231" height="33.224" viewBox="0 0 31.231 33.224">
  <g id="Layer_2" data-name="Layer 2" transform="translate(1.08 1.063)">
    <path id="Caminho_90" data-name="Caminho 90" d="M74.425,54.391l6.749-3.7c.764-.417,1.564-1.485,0-2.336L74.425,44.67,69.58,49.551Z" transform="translate(-52.929 -34.027)" fill="none" stroke="#00e676" stroke-miterlimit="10" stroke-width="2"/>
    <path id="Caminho_91" data-name="Caminho 91" d="M20.847,64.92,5.37,80.515A2.1,2.1,0,0,0,6.623,80.2L25.692,69.76Z" transform="translate(-4.196 -49.396)" fill="none" stroke="#00e676" stroke-miterlimit="10" stroke-width="2"/>
    <path id="Caminho_92" data-name="Caminho 92" d="M20.817,16.04l4.84-4.876L6.593.763A1.837,1.837,0,0,0,5.33.548Z" transform="translate(-4.166 -0.516)" fill="none" stroke="#00e676" stroke-miterlimit="10" stroke-width="2"/>
    <path id="Caminho_93" data-name="Caminho 93" d="M17.151,16.142,1.664.65C1.023.792.5,1.347.5,2.458V29.876c0,1.049.412,1.786,1.174,1.861Z" transform="translate(-0.5 -0.618)" fill="none" stroke="#00e676" stroke-miterlimit="10" stroke-width="2"/>
  </g>
</svg>
