<svg xmlns="http://www.w3.org/2000/svg" viewBox="0 0 836.81 133.08"><defs><style>.cls-1{fill:#F7F7F7;}</style></defs><g id="Camada_2" data-name="Camada 2"><g id="Camada_3" data-name="Camada 3"><path class="cls-1" d="M667.57,59.4C687.78,70.67,693.65,97,679,114c-7.63,8.87-17.64,14.23-29.17,14.53-23.64.62-47.3.18-71,.16a6,6,0,0,1-1.41-.54c-.07-1.55-.24-3.32-.24-5.09.08-37.48.25-75,.15-112.45,0-4.82,1.42-6.21,6.23-6.11,22.14.48,44.32-.07,66.42,1,21.08,1.06,33.64,21.28,26.15,41C674.44,51.15,670.63,54.94,667.57,59.4ZM611.39,74.8c0,8.47-.09,16.26.11,24,0,1,1.54,2.8,2.38,2.81,9.28.08,18.61.43,27.82-.44,6.09-.57,10.31-7.37,10-13.65s-5.16-12.34-11.29-12.65C631,74.45,621.53,74.8,611.39,74.8Zm.28-28.18c8.46,0,16.4.21,24.33-.08,4.45-.17,7-3.3,7.15-7.54.17-4-2.34-7.64-6.16-7.93-8.34-.63-16.76-.19-25.32-.19Z"/><path class="cls-1" d="M295.57,21.93,272.29,43.24c-9.76-8.62-20.74-12.72-33.6-9.47-8.85,2.23-15.46,7.67-20,15.47-9.47,16.29-3,37.45,14,46.17A32.74,32.74,0,0,0,277.16,80H249V53.57h62.75c6.76,32.66-12.46,62.76-41.72,73.89-31.46,12-67.22-3-82-33.83-14.66-30.51-3.08-67.29,26.86-85C243.63-8.37,279.58,1.67,295.57,21.93Z"/><path class="cls-1" d="M771.2,133.07C734.69,133,706,103.91,706.06,67A65.17,65.17,0,0,1,771.55,1.68c35.9,0,65.31,29.61,65.26,65.7C836.75,104.12,807.8,133.11,771.2,133.07Zm33.17-65.24a33.13,33.13,0,0,0-32.75-33.3,32.62,32.62,0,0,0-33.13,32.69c-.07,18.8,14,33.13,32.49,33.2C789.32,100.48,804.27,85.88,804.37,67.83Z"/><path class="cls-1" d="M64.93,133.07C27.56,132.5-.53,103.38,0,65.78.52,30.21,30.26,1.33,65.69,1.62c37.89.31,66.62,33.5,65.22,68C129.49,104.7,100.2,133.6,64.93,133.07ZM32.42,67.37c0,18.81,14,33,32.65,33a32.93,32.93,0,1,0,.33-65.86A32.55,32.55,0,0,0,32.42,67.37Z"/><path class="cls-1" d="M488.84.81c37.77,1.16,66.11,30.81,65,68-1.09,35.51-31.55,64.3-66.39,63.64-36.94-.71-66.67-33-64.51-70.08C424.87,28.8,455.08-.22,488.84.81Zm-.75,98.67a32.82,32.82,0,0,0,33.27-32.63,33.16,33.16,0,0,0-32.82-33.2,32.59,32.59,0,0,0-33,32.78C455.45,85.18,469.52,99.46,488.09,99.48Z"/><path class="cls-1" d="M333.31,128.09c0-13,0-25.51,0-38q.09-39.49.2-79c0-7.1,0-7.11,6.87-7.12,8.49,0,17,0,26,0v97.73c2.17.16,3.9.39,5.64.4,13,.07,26,.29,39,0,4.13-.08,6.23,1.39,8,4.94,3.54,6.93,7.59,13.6,11.77,21Z"/></g></g></svg>