<svg xmlns="http://www.w3.org/2000/svg" width="198.348" height="71.117" viewBox="0 0 198.348 71.117">
  <g id="Camada_2" data-name="Camada 2" transform="translate(-12.089 32)">
    <g id="Camada_1" data-name="Camada 1" transform="translate(12.089 -32)">
      <rect id="Retângulo_44" data-name="Retângulo 44" width="7.383" height="18.819" rx="3.692" transform="translate(14.484)" fill="#00e676"/>
      <rect id="Retângulo_45" data-name="Retângulo 45" width="7.383" height="18.819" rx="3.692" transform="translate(28.953 8.492)" fill="#00e676"/>
      <rect id="Retângulo_46" data-name="Retângulo 46" width="7.383" height="18.819" rx="3.692" transform="translate(14.484 52.299)" fill="#00e676"/>
      <rect id="Retângulo_47" data-name="Retângulo 47" width="7.383" height="18.819" rx="3.692" transform="translate(0.009 43.711)" fill="#00e676"/>
      <path id="Caminho_72" data-name="Caminho 72" d="M7.392,37.942V35.661A3.7,3.7,0,1,0,0,35.652v3.7H0c1.013,15.9,28.953,17.888,28.953,27.7v3.386a3.692,3.692,0,0,0,3.692,3.692h0a3.692,3.692,0,0,0,3.692-3.692V67.051h0C36.916,50.582,7.392,50,7.392,37.942Z" transform="translate(0 -17.376)" fill="#00e676"/>
      <path id="Caminho_73" data-name="Caminho 73" d="M160.75,57.168h0V46.44a2.195,2.195,0,0,0-2.195-2.195H156.78a2.186,2.186,0,0,0-2.168,1.926,12.927,12.927,0,1,0-.027,22.013v1.428A6.019,6.019,0,0,1,150,75.457l-1.593.137a9.026,9.026,0,0,1-6.023-1.643,2.063,2.063,0,0,0-2.879.479l-1.634,2.282a1.415,1.415,0,0,0,.456,1.953L140.558,80a13.781,13.781,0,0,0,7.059,1.948h1.123a12,12,0,0,0,12-12V57.177Zm-12.7,6.548a6.534,6.534,0,1,1,6.535-6.534,6.534,6.534,0,0,1-6.535,6.534Z" transform="translate(-73.337 -24.053)" fill="#00e676"/>
      <path id="Caminho_74" data-name="Caminho 74" d="M218.271,43.642a7.4,7.4,0,0,0-6.9,2.158h0v-.821a.853.853,0,0,0-.853-.853H207a2.195,2.195,0,0,0-2.195,2.195V66.928a2.282,2.282,0,0,0,2.282,2.282h1.99a2.282,2.282,0,0,0,2.282-2.282V53.873c0-.151,1.784-5.188,6.425-3.938l1.647.757c1.337.721,1.784-.205,1.912-.456l1.191-2.875C223.382,45.623,221.228,43.893,218.271,43.642Z" transform="translate(-111.352 -23.656)" fill="#00e676"/>
      <path id="Caminho_75" data-name="Caminho 75" d="M269.124,43.674h-1.944a1.953,1.953,0,0,0-1.958,1.711,12.321,12.321,0,0,0-6.79-2.195,13.172,13.172,0,0,0,0,26.339A12.649,12.649,0,0,0,265.2,67.58v.548a1.059,1.059,0,0,0,1.059,1.059h3.29a2.282,2.282,0,0,0,2.282-2.282V46.357a2.683,2.683,0,0,0-2.7-2.683ZM258.661,63.145A6.534,6.534,0,1,1,265.2,56.61a6.534,6.534,0,0,1-6.534,6.534Z" transform="translate(-133.479 -23.482)" fill="#00e676"/>
      <path id="Caminho_76" data-name="Caminho 76" d="M400.633,43.674h-1.967a1.958,1.958,0,0,0-1.939,1.711,12.321,12.321,0,0,0-6.785-2.195,13.174,13.174,0,0,0-.014,26.343,12.663,12.663,0,0,0,6.763-1.948v.548a1.054,1.054,0,0,0,1.054,1.059h3.29a2.282,2.282,0,0,0,2.282-2.282V46.357a2.679,2.679,0,0,0-2.683-2.683ZM390.169,63.145A6.534,6.534,0,1,1,396.7,56.61a6.534,6.534,0,0,1-6.534,6.534Z" transform="translate(-204.968 -23.482)" fill="#00e676"/>
      <path id="Caminho_77" data-name="Caminho 77" d="M329.062,43.9a13,13,0,0,0-6.9,1.711v-.265a1.091,1.091,0,0,0-1.086-1.086h-3.194a2.382,2.382,0,0,0-2.382,2.382V67.379a2.19,2.19,0,0,0,2.19,2.195h2.382a2.081,2.081,0,0,0,2.081-2.081V56.747c0-7.78,10.468-8.405,10.349-1.725h0V67.4a2.172,2.172,0,0,0,2.168,2.172h2.282a2.09,2.09,0,0,0,2.085-2.09V54.949S339.53,43.9,329.062,43.9Z" transform="translate(-171.532 -23.864)" fill="#00e676"/>
      <rect id="Retângulo_61" data-name="Retângulo 61" width="7.383" height="18.819" rx="3.692" transform="translate(29.953 8.492)" fill="#00e676"/>
    </g>
  </g>
</svg>
