<svg xmlns="http://www.w3.org/2000/svg" viewBox="0 0 1874.05 609.13"><defs><style>.cls-1{fill:#F7F7F7;}</style></defs><g id="Camada_2" data-name="Camada 2"><g id="Camada_3" data-name="Camada 3"><path class="cls-1" d="M0,291.54c.74-7.35,1.3-14.72,2.25-22,8.07-62.05,31.66-117.45,72.84-164.71,47.36-54.37,107.6-87.21,178.15-99.91C319.43-7,382.9,2.84,442.72,34.46c87.3,46.16,139.19,118.8,159,214.4,13.41,64.62,3.5,127.07-24.71,186.44C534.57,524.74,463.43,578.91,367.92,602c-14.7,3.55-30.05,4.38-45.1,6.49-1.14.16-2.26.44-3.39.66H289c-1.4-.23-2.8-.47-4.2-.68-16.56-2.47-33.44-3.64-49.63-7.62-68.09-16.75-124.89-52-168.65-107C30.37,448.42,9.59,396.36,2.26,338.9,1.31,331.46.75,324,0,316.51ZM335.72,498.35l-1.64-2.85c-12.14-20.78-16.05-43.64-16.94-67.23a82.46,82.46,0,0,1,.74-10.38c.51-5.75.64-11.57,1.7-17.22a208.78,208.78,0,0,1,11.34-39.48,183.07,183.07,0,0,1,37.94-58.43,134.67,134.67,0,0,1,16.92-15.29c9.68-7.24,19.71-14.07,29.94-20.51,5.75-3.62,12.22-6.12,18.45-9.16-3.75-4.11-7.09-8.26-10.94-11.87-6-5.63-12-11.36-18.62-16.19-10.79-7.87-21.65-15.84-33.26-22.37-20.63-11.61-42.59-20.19-66.22-23.54-13.68-1.94-27.45-3.54-41.23-4.49-6.86-.47-13.87.61-20.76,1.45-9.11,1.12-18.31,2.1-27.23,4.18a212,212,0,0,0-57.22,23,191.23,191.23,0,0,0-81.63,91.34c-1.09,2.59-2.18,5.78-1.65,8.35a114.07,114.07,0,0,0,5.76,20.1c5.73,14,11.54,28,18.34,41.47a196.45,196.45,0,0,0,33.33,46.6,274.15,274.15,0,0,0,30.49,28,323.59,323.59,0,0,0,36.28,24c17.13,9.94,35.67,16.79,54.75,22.14a200.76,200.76,0,0,0,42.89,7.55c4.37.25,8.74.7,13.12.76C318.75,498.44,327.13,498.35,335.72,498.35ZM558.51,291.71c.54-6.13,1.38-11.35,1.39-16.56,0-11,.16-22.06-.86-33a297.39,297.39,0,0,0-5.44-36.27,211.3,211.3,0,0,0-31-73,352.23,352.23,0,0,0-22-28.94,217.9,217.9,0,0,0-43-39.19,244.85,244.85,0,0,0-52.86-28A255.68,255.68,0,0,0,328,20.23c-20.18-1.18-40.41-.46-60.52,3.46a263.22,263.22,0,0,0-59,19,236.24,236.24,0,0,0-64.64,43.4,264.52,264.52,0,0,0-27,30.2c-11.27,14.53-20.1,30.63-27.57,47.5-12.72,28.7-18.37,58.82-18.87,90-.08,4.75.44,9.52.74,14.28.21,3.42.51,6.84.85,11.24,1.08-2,1.65-2.95,2.17-3.95,4.5-8.56,8.48-17.44,13.57-25.63a211.88,211.88,0,0,1,42.11-49.34,227.86,227.86,0,0,1,39.1-26.75c17.55-9.59,36.24-16.14,55.62-20.81a230.53,230.53,0,0,1,49.81-6.34A176.4,176.4,0,0,1,298.59,148c10.5,1.26,21.1,2.46,31.36,4.93A239.46,239.46,0,0,1,393,177.66a227,227,0,0,1,54.37,42.87,284.77,284.77,0,0,1,24.34,30.22,4.69,4.69,0,0,0,3,1.71c6,.65,12,1.07,18,1.62,11.48,1,22.06,5.22,32.17,10.29C537.77,270.82,548.63,280.05,558.51,291.71ZM65,359.86c-.33,3-.85,5.76-.89,8.51a183.31,183.31,0,0,0,4.46,44.31,200.58,200.58,0,0,0,24.56,60.5c6.52,10.58,13.31,21,22.13,29.78,9.11,9.09,17.93,18.66,28.09,26.44C162,543.71,183.09,554.2,205,562.92s44.41,15.23,68,16.38a167.07,167.07,0,0,0,31.28-1.59,212.53,212.53,0,0,0,48.34-12.26,220.54,220.54,0,0,0,42.53-22.24,17.17,17.17,0,0,0-2.51-1.14c-21.4-5.66-38.79-17.38-52.71-34.47-1.74-2.14-3.52-4.41-7-3.84a81.27,81.27,0,0,1-14.12,1.5c-15.52-.28-31.08-.39-46.53-1.65A201.86,201.86,0,0,1,237.94,498a279.76,279.76,0,0,1-70.73-29.19,260.21,260.21,0,0,1-89.89-87.66C73.14,374.21,69.18,367.13,65,359.86ZM448.78,291c-6,2.32-10.95,3.91-15.63,6.14A159.45,159.45,0,0,0,380.25,338c-11,12.79-20.16,26.54-26.47,42.26a163.7,163.7,0,0,0-11.55,49.22c-.62,8.47,0,17.08.71,25.57a82.6,82.6,0,0,0,10.8,35.1,4.08,4.08,0,0,0,3.21,1.79c6.9-1.13,13.84-2.23,20.59-4a251.15,251.15,0,0,0,49.52-18.65c11-5.5,21.41-12.31,31.84-18.91,3.18-2,7-4.81,8.06-8a164.18,164.18,0,0,0,7.81-46.25c.2-6.69-.33-13.42-.74-20.12-.37-6-.34-12.18-1.72-18a369.08,369.08,0,0,0-10.17-36.63C458.56,311.09,453.41,301.37,448.78,291ZM426,535.5a9.08,9.08,0,0,0,1.29.26c14.31.75,28-2.26,41.22-7.39,12.21-4.73,23.61-11.23,33.21-20.08,9.11-8.39,17.42-17.69,25.61-27,10.88-12.36,20.9-25.24,27.73-40.58,8.41-18.89,15.21-38.1,16.51-58.79.85-13.45.91-27.08-4.59-39.86-3-6.87-6.49-13.49-9.76-20.22l-1.27.39c-.48,1.41-1,2.82-1.44,4.25a231,231,0,0,1-19.72,45,247.94,247.94,0,0,1-28.06,40.05c-3.28,3.75-6,7.78-6.9,12.91a69.69,69.69,0,0,1-2.23,8.05c-4.24,14.5-10.8,28-18.08,41.16a191,191,0,0,1-30.56,40.67C441.78,521.66,433.84,528.29,426,535.5ZM579.43,386.69c10.73-30.28,16.59-61.36,16.46-93.44A290.74,290.74,0,0,0,580.06,200c-10.3-30.16-24.31-58.47-44.24-83.7C508.55,81.74,474,55.13,466,52.59c5.43,4.51,11.47,8.75,16.56,13.92,10.5,10.68,21.25,21.26,30.48,33a330.86,330.86,0,0,1,25.65,38.38c8.71,15,14.49,31.33,19,48.12,4.82,18,8,36.17,8.43,54.75.23,9.81-.26,19.66-.77,29.48-.27,5.34-1.24,10.65-2,16-.79,5.95-2.06,11.53,1.85,17.45a72.22,72.22,0,0,1,8.6,19.46,258,258,0,0,1,6.25,28.63,83.43,83.43,0,0,1,.81,16.2C580.76,374.2,580,380.44,579.43,386.69ZM102.41,494c-.28-1.11-.26-1.53-.46-1.77a171.3,171.3,0,0,1-25.08-38.75A318.39,318.39,0,0,1,62,415.11c-4.42-14-6.44-28.63-7.26-43.29-.53-9.59-.1-19.24-.1-28.86,0-1.83.37-3.79-.13-5.49-2-6.68-4.37-13.25-6.33-19.94a241.39,241.39,0,0,1-9.07-58.11,155.26,155.26,0,0,1,.76-20.9c1-10.81,2.19-21.63,3.88-32.35a199.15,199.15,0,0,1,21.44-64.48c3.29-6.08,6.42-12.23,9.63-18.35C-.08,223.48-3.58,385.56,102.41,494ZM489.5,285.27c16.35,39.8,21.3,80.63,13.64,123.69,1.45-1.83,2.48-3.2,3.59-4.5a192.68,192.68,0,0,0,27.56-42.58c6-12.73,10.32-26.2,15.55-39.27,2-5.06,3.15-9.62-3-12.62a3.22,3.22,0,0,1-.84-.81,68.49,68.49,0,0,0-24.56-17.4A83.27,83.27,0,0,0,489.5,285.27ZM463.65,453.94c-32.21,21.65-66.44,37.29-104.61,45.4,2.79,3.59,5.13,7.11,8,10.16,10.17,10.88,22.69,18.11,36.77,22.7,1.26.41,3.43.35,4.22-.44,8.82-8.85,18.05-17.4,26-27,7-8.51,12.86-18,18.46-27.55C456.78,469.79,460,461.71,463.65,453.94ZM293.74,581.42c62.3,3.79,119.06-13,172.25-46-1.1-.22-1.39-.38-1.58-.3a121.58,121.58,0,0,1-47,9.38c-3.2,0-6.52,1.8-9.55,3.26-3.77,1.81-7.25,4.23-11,6.2a223.43,223.43,0,0,1-45.85,18.67,214.84,214.84,0,0,1-42.44,7.61C303.65,580.6,298.7,581,293.74,581.42Z"/><path class="cls-1" d="M1328.82,111.15c52.71.22,99.81,16.15,140.21,50.27,37.8,31.93,59.46,73,66.46,121.73,5.35,37.29,2.66,73.92-11.23,109.28-20.07,51.09-55.57,88.54-105.54,109.9-70.44,30.11-140.23,26.61-206.07-14.29-50.93-31.63-81.1-78.08-89.92-137.34-7.52-50.47-.71-99,26.82-142.93,32.78-52.23,80.42-83,141.19-93.45,5.51-.95,11.08-1.65,16.64-2.09C1314.52,111.67,1321.68,111.49,1328.82,111.15ZM1263,318.42c.14,2.22.33,6.11.63,10,2.52,33,27,58.75,57.68,61.17,36.12,2.86,60.49-16,69.6-45.27,5.81-18.62,5.42-37.46-.17-56.08a66.59,66.59,0,0,0-22.59-33.44c-26.86-21.43-68.42-15.61-90.4,12.45C1266.37,281.83,1263.33,298.86,1263,318.42Z"/><path class="cls-1" d="M841.26,120.31v5.36q0,102.78,0,205.58c0,14.44.57,28.86,4.56,42.89,4.27,15,15.06,23.64,30.65,24.22a68.53,68.53,0,0,0,13.2-.71c11.58-1.85,19.69-8.34,24-19.28,3.88-9.8,5.24-20.14,5.44-30.55.4-21.05.44-42.12.46-63.18q.07-79.59,0-159.16v-5.17H1060c.08,1.38.2,2.53.2,3.67-.09,75.55,0,151.1-.4,226.64-.11,20.65-1.11,41.42-7.35,61.35-13,41.42-40.05,70.5-78.84,89.4-31.63,15.42-65.14,20.8-100,19.94-25.41-.64-50.2-4.57-73.83-14.35-30.22-12.5-56-30.63-74.53-58.14-11-16.38-17-34.59-20-54a382.77,382.77,0,0,1-3.89-58.69q.2-105.32.1-210.65v-5.2Z"/><path class="cls-1" d="M1597.34,120.26h140.29V384.19h136.42V510.68H1597.34Z"/></g></g></svg>