<svg xmlns="http://www.w3.org/2000/svg" viewBox="0 0 4096 876.2"><defs><style>.cls-1{fill:#F7F7F7;}</style></defs><g id="Camada_2" data-name="Camada 2"><g id="Camada_3" data-name="Camada 3"><path class="cls-1" d="M4096,547c-6.27,14.53-9.83,29.78-12.38,45.35-3.07,18.68-6.57,37.28-9.7,55.95a95.34,95.34,0,0,0,.94,36.17c2.44,11.33-.46,21.38-8.87,29.72a14.79,14.79,0,0,0-3.4,5.87,127.16,127.16,0,0,1-25.2,45.57c-1.09,1.24-2.08,2.56-3.43,4.23a28.35,28.35,0,0,1-2.46-3.22c-6.9-13.12-13.69-26.29-20.68-39.35-1.45-2.72-1.24-4.77.31-7.35a114,114,0,0,1,24.27-28.34,10.61,10.61,0,0,0,4.15-8.46c.32-8.14,4.06-14.89,9.69-20.78a11.31,11.31,0,0,0,3.08-6.77c.82-27.46,1.4-54.93,1.93-82.4a40.18,40.18,0,0,0-1-9.9c-.32-1.35-2.06-2.79-3.48-3.37-7.67-3.12-15.42-6-23.19-8.89a14.71,14.71,0,0,0-5.75-1.25c-15.77,1.05-31.52,2.26-47.27,3.47-9.94.76-19.87,2.24-29.81,2.27a320,320,0,0,1-33.16-2c-12.74-1.3-21.35-15.53-17.47-28.08.54-1.72,1.15-3.41,1.94-5.72-21.73-7.53-38.4-21-48.73-41.85l-1.17.62c.4,1.59.71,3.21,1.21,4.76a76,76,0,0,0,27.13,38c3.43,2.59,5.11,4.84,4.89,9.7-.69,15,9.16,29.26,23.32,35.36l5.53,2.4c-1.53,5.21-2.86,10.32-4.52,15.32q-12.84,38.55-25.82,77a19.89,19.89,0,0,1-1.81,4.11c-7.85,12.66-10,26.82-11.49,41.29-1.14,10.71-4,21.24-5,32-1.5,15.89-2,31.87-3,47.81-.25,4-1.2,8-.76,11.87s1.35,8.36,3.6,11.44c12.34,16.92,21.41,35.22,25.56,55.84.16.81.44,1.61.54,2.43.21,1.63.32,3.27.51,5.32a33,33,0,0,1-3.88.45c-15.33,0-30.67,0-46,.06-3.12,0-5.31-.37-4.74-4.29,2.78-19.14-3.39-36.33-12.93-52.19-3.81-6.32-3.92-11.78-2.82-18.28,2.21-13,7.62-24.72,13.75-36.23a21.24,21.24,0,0,0,2.63-8.42c1-16.79,1.33-33.6,2.41-50.37,1.85-28.52-5.61-55.61-12.06-82.88a11.61,11.61,0,0,0-1.13-3.3c-4.4-7.4-4.61-14.21,2.33-20.37.84-.75.71-2.57,1-3.9-1.38,0-2.88-.43-4.12,0-17.09,5.47-34.19,11-51.21,16.65-3.31,1.11-5.69,1.07-7.56-2.19-.74-1.28-2.07-2.2-2.87-3.45-6.3-9.7-15.49-12-26.63-13.18-24.9-2.67-49.73-6.49-74.33-11.2a536.85,536.85,0,0,1-96.05-28.13c-1.35-.53-2.8-.82-4.81-1.39-.83,7.26-1.49,14.13-2.42,21-2.4,17.73-8,34.31-18.34,49.06-1.94,2.76-2.3,5-.89,8.22,4.6,10.36,5.94,21.33,5.73,32.61a11.24,11.24,0,0,0,2.36,6.74,827.76,827.76,0,0,1,61.11,85.25,18.33,18.33,0,0,0,3.6,4.07c11,9.37,15.07,21.93,9.14,34.91-3.15,6.9-2.31,12.89-1.43,19.58,2.34,17.73,1.29,35.19-5.18,52.08-.58,1.51-1.4,2.94-2.47,5.15-3-2.33-5.6-4.29-8.12-6.33-10.61-8.62-21.12-17.35-31.83-25.83-2.89-2.28-3.59-4.44-1.82-7.62,4-7.26,7.95-14.59,12-21.84,1.16-2.07,2.39-3.66.36-6.18-10.39-12.87-9.42-26.79-2.76-40.76,1.74-3.65,1.7-6.09-.45-9.47-11.75-18.47-24.51-36.08-40.52-51.21-7.56-7.15-17-9.44-26.62-11.26-8.47-1.6-17-2.85-26.18-4.37.5-1.94.79-3.49,1.3-5,5.18-15.24,2.89-29.11-7.38-41.65-4.75-5.8-9.2-11.84-13.93-17.66-1.76-2.17-1.88-3.81-.08-6.08,19.21-24.32,30.7-51.95,35.36-82.55.32-2.09,2.43-4.3,4.28-5.72A104.85,104.85,0,0,0,3528.85,494c.92-1.63,1.6-3.4,2.39-5.11l-1.08-.63c-1.13,1.34-2.29,2.64-3.36,4a95.31,95.31,0,0,1-35.94,28.76c-4.09,1.86-5.5,4.39-6.31,8.49-9.11,46-31.53,83.42-71.81,108.85-6.44,4.06-13.74,6.73-20.44,10.4a23.55,23.55,0,0,0-6.37,5.68C3381.35,660,3378,667,3372.42,671c-14.87,10.51-21.43,25.59-25.58,42.11-3.85,15.28-6.9,30.78-9.94,46.25-2.66,13.57.32,26.63,4,39.72,2.31,8.3,5.51,15.17,12.27,21.2,14.36,12.81,22,29.83,26.25,48.39.83,3.6-.26,5.14-4.25,5.08-12.67-.19-25.34-.12-38,0-3,0-4.29-.79-4.93-4-4.28-21.71-13.68-41-28.82-57.22a10.16,10.16,0,0,1-2.74-10.07c2.53-9.45,5.82-18.71,8-28.22a176.58,176.58,0,0,0,3.51-23c1.26-12.91,2.54-25.84,2.83-38.79a48.16,48.16,0,0,0-3.39-17.81,278.17,278.17,0,0,0-12.71-27.65c-1.71-3.35-1.44-5.48,1.1-7.85,2.79-2.62,5.31-5.56,8.26-8,8.07-6.67,11.36-16.22,15.46-25.27.47-1-.25-2.62-.54-4.89-11.26,7.64-22.63,12.09-34.07,12.65,4.63-8,10.28-15.83,14-24.53,6.15-14.28,3.77-29-.37-43.46q-16-56.08-31.94-112.21C3256.41,402,3285,353,3336.59,341.17c8-1.83,16.52-1.89,24.77-1.64a59.41,59.41,0,0,0,27.55-5.58c17.84-8.35,36.21-15.31,55.75-18.28,33.57-5.11,66.65-3.11,98.93,8.22a130.26,130.26,0,0,0,18.62,5.43c2.86.54,7.12-.08,9.07-1.94,7.37-7,14.58-5.66,22.68-1-.79,1.5-1.47,2.95-2.29,4.31a335.4,335.4,0,0,0-37.51,91c-.95,3.77-.39,5.57,3.47,7.1q59.57,23.79,119,48c3.73,1.53,5.21.77,6.64-2.78,6.73-16.64,13.68-33.2,20.81-50.44,2.06,1.28,3.84,2.33,5.57,3.47,8.49,5.58,16.87,11.34,25.48,16.72,2.86,1.78,3.4,3.88,3.53,7,.77,19.09,1.51,38.18,2.8,57.24,1,14.08,2.68,28.11,4.19,42.15q1.84,17.08,4,34.14c.54,4.24,3.44,6.91,7.49,6.55,13-1.13,25.72-3.42,37.37-9.7,4.89-2.63,7.79-5.69,7.19-12.54-2.55-29.31-4.22-58.71-6.19-88.08-1-15.43-2-30.87-3.12-46.29a24.81,24.81,0,0,0-1.78-7.65q-23.06-55.29-46.29-110.51c-.68-1.61-1.57-3.12-3.05-6L3675.8,466.78c-10.16-4-19.88-7.75-29.57-11.58-26-10.27-51.95-20.63-78-30.79-3.48-1.35-4.44-2.76-3.43-6.56a330,330,0,0,1,38.57-90.07c.53-.85,1.07-1.69,1.54-2.58,2.44-4.64,2-6-2.83-7.85-7.29-2.83-14.62-5.56-21.92-8.36-1-.4-2-1-3.51-1.67,1.77-4.66,3.23-9.24,5.25-13.55,1.91-4.07,2-7.24-2.43-9.55-.69-.36-1.15-1.16-2.21-2.26,6.2-5.18,12.26-10.26,18.34-15.32,6.78-5.65,13.44-11.47,20.43-16.86,3.34-2.56,3.38-4.52.91-7.67-10.56-13.47-19.18-28.16-24.1-44.57a149.81,149.81,0,0,1-6.19-31.17c-1.39-17.72,6.86-30.63,22.71-38.79,3.07-1.58,5.61-4.18,8.4-6.31-.25-.6-.51-1.19-.76-1.78l12.88,2.72c-.08-4.44-2.81-6.51-5.72-8.28-4.16-2.52-7.42-4.93-4.16-10.65.73-1.29-.8-5-2.36-6.28-14-11.51-20.21-26.3-16.75-43.87,3.68-18.73,16.47-29.68,34.48-35.14,10.35-3.14,20.8-1.63,31.22-1.43,1.33,0,3.22,1.91,3.81,3.35,2.44,6,7.12,9.25,12.58,12.19a17.07,17.07,0,0,1,6.91,7.27c4,8.52,8.65,16.44,15.25,23.26,2.08,2.15,3,5.36,4.79,7.89,1.06,1.53,3.13,4,4,3.73,2.68-.89,6.57-2.42,7.17-4.51,2.68-9.3,10.23-16.35,19.83-16.3,10,.06,17.73-3.33,24.1-11.27,8.37-10.43,14.72-21.73,18.08-34.67,1.61-6.17,3.9-7.59,10-5.56,8,2.65,14.12,8,19.57,14.21.66.75,1.24,1.58,1.84,2.38,8.07,10.7,8.15,14-.17,24.5a94.06,94.06,0,0,1-40,29.77c-2,.78-3.9,1.68-6.11,2.64,3,5.2,5.6,10.1,8.6,14.76.58.89,2.67,1.07,4.07,1.11,4.5.14,9,.16,13.5,0,2.9-.09,4.23.82,4.21,4-.1,19.83.28,39.67-.17,59.5-.35,15.45-13.46,27.52-29.23,27.76-8.49.13-17,0-25.5,0H3739l-.72,1.36q12.12,13.72,24.25,27.44c8,9.07,16.12,18.11,24.52,27.54-5.68,4.91-10.83,9.59-16.25,13.93-2.94,2.35-2.83,4.13-.58,6.95,3.15,3.94,6.7,6.67,11.78,7.69a49.05,49.05,0,0,1,10.82,3.7c5.06,2.35,6.53,6.11,4.13,11.08-3.41,7.07-7.21,13.94-14.6,17.86a17,17,0,0,0-3.89,3.1c-2.51,2.52-3.68,4.89,0,7.81,2.23,1.8,3.67,4.6,5.86,7.47a40.73,40.73,0,0,0,3.72-4c8.41-11.79,17.06-23.43,25-35.55,2.77-4.25,5.11-5.38,9.55-3.36,20.74,9.45,41.81,18.22,62.21,28.36,21.15,10.51,42.54,19.65,66.36,21.73.29,0,.54.37,1.32.92-.54,2.28-1.16,4.78-1.74,7.3-.68,3,.05,5.23,3.16,6.37,1.09.4,2.06,1.1,3.13,1.55,8.5,3.55,12.09,9,12.15,19.09.06,10.53,2.81,21.44,6.34,31.49,5.92,16.87,9.52,34,9.08,51.76a138.15,138.15,0,0,1-9.26,46.73c-1.73,4.48-4,5.14-7.73,2.87-6.47-3.95-12.91-8-19.56-12.05a10.38,10.38,0,0,0,.79,2.68c6.57,11,14.67,20.11,28,23.08,18.47,4.11,36.87,8.5,55.3,12.8,3.07.72,6.06,1.91,9.16,2.37,2.35.35,5.11.55,7.21-.32,22.93-9.53,43.69,3.08,46.71,22.42.07.44.58.81.88,1.21ZM3751.34,261.19a16.17,16.17,0,0,0,3.46-1.86c7.69-6.37,15.27-12.88,23-19.24,2.26-1.87,2-3.33.16-5.34q-28.12-31.47-56.11-63.07c-2.4-2.71-4.07-2.27-6.57-.13-10.64,9.07-21.28,18.17-32.26,26.81-3.85,3-4.06,5.74-2.32,9.77A90.5,90.5,0,0,0,3717.15,250,74.4,74.4,0,0,0,3751.34,261.19Zm-66-167.35c6.81-3.31,10.3-8,12.95-13.51,1.58-3.28,2.7-7,5-9.65,3.66-4.09.38-6-1.83-8.15-2.4-2.29-4.85-5.4-8.75-1.5-3.22,3.22-7,5.9-10.46,8.77-7.33-8-6.63-12.46,2-17,5.25-2.76,6.45-6.89,3.21-11.89-3.82-5.91-10.35-7.68-16.33-11.16,0,7.33.09,13.79-.07,20.25,0,1.52-.91,3-1.4,4.53-.85-1.49-2.29-2.93-2.44-4.49-.8-8.27-1.34-16.57-1.82-24.87-.17-3-.76-5.31-4.3-5.53-7.76-.5-8.52-1.86-7.41,7.07.11.82.37,1.62.5,2.44q2,12.47,4,24.94l-1.74.93c-1-1.35-2.55-2.57-2.93-4.09-1.81-7.07-3-14.3-5-21.33-3.22-11.64-1-11.41-13.78-7.74-15.1,4.31-24.25,15.2-29.46,29.54-2.29,6.34-1.49,7.59,5.16,8.62a119.34,119.34,0,0,0,16.36,1.3c3.27.06,5,.9,6.24,4.18a41.84,41.84,0,0,0,23.38,24c3,1.27,4.77,2.67,4.26,6.17-.35,2.39.37,4.7,3.26,4.27,1-.15,2.26-2.43,2.37-3.82.52-6.8.63-13.63,1.06-20.44.07-1.09,1.06-2.12,1.63-3.18.79.44,1.85.68,2.32,1.34C3676.07,80.48,3680.69,87.18,3685.34,93.84Zm-62.81,155.25c-6.28,5.25-11.92,10.14-17.77,14.78-2.63,2.09-2.55,3.66-.4,6.05q28.41,31.54,56.64,63.23c2.31,2.61,4,2.57,6.57.34q15.87-13.69,32-27.06c1.26-1.05,3-1.49,4.55-2.22-.42-.73-.84-1.46-1.27-2.19C3671.05,292.45,3644.87,274.29,3622.53,249.09Zm89.25-166.18c0,4.81-.94,9.67.17,14,3.75,14.61-7.34,29.09-20.16,32.05-7.47,1.73-8.41,3.44-6.93,11.18.65,3.41,1.93,6.7,2.84,10.07,2.18,8.17,4.38,16.34,6.42,24.54a71.06,71.06,0,0,1,1.08,7.7c9.77-5.06,10.44-6.59,7.8-16-2.55-9.08-5-18.19-7.17-25.93,7.14-5.16,14-9.25,19.68-14.58,3.07-2.88,5.15-3.27,9-2.54,7.13,1.37,14.42,1.88,21.66,2.6,3,.29,4.55-1,4.37-4.37-.26-5.15,0-10.33-.14-15.49-.05-1.56-.41-3.77-1.47-4.53-4.3-3.09-7.81-7.39-14.24-7-6.16.34-12.24-1.83-15-7.94C3718,82.81,3715.9,82.05,3711.78,82.91Zm99-45-24.18-20.35c.12-.08-.3,0-.42.29-6.63,14-15.27,26.42-27.08,36.56a4,4,0,0,0-1.34,3c.68,4.83,1.65,9.62,2.59,14.86C3781.13,65.88,3798.61,55.14,3810.81,37.9ZM3342.63,375.42c-17.86,16.07-27.27,36.34-28.88,60-1.68,24.76,5.2,47,22,65.8-5.32-20.92-10.89-41.66-9.41-63.59S3335.64,395.8,3342.63,375.42ZM3583.32,281a27.31,27.31,0,0,0,2.2,2.41c19.43,15.69,38.85,31.4,58.4,46.95a5.39,5.39,0,0,0,4.89.35c2.31-1.36,1.85-3.43.07-5.42-16.12-18-32.15-36-48.35-53.94-.82-.9-3.52-1.35-4.41-.71C3591.82,273.75,3587.85,277.29,3583.32,281ZM3762,259.76c-.17,3.73-.32,6-.36,8.21-.19,9.9-.41,19.8-.45,29.7,0,1.21.7,3.13,1.59,3.5,2.58,1.06,6.71,3,7.95,1.94,7.06-6.06,15.93-10.36,19.61-19.94,2.14-5.56,1.58-8.22-4.11-10.25a33.54,33.54,0,0,0-5.8-1.38c-4.57-.78-8.43-2.54-11.44-6.34C3767.49,263.28,3765.07,262.08,3762,259.76ZM3744,79.05c8.7.31,10.35-1.27,10.52-10.11a31.81,31.81,0,0,0-.16-5c-.89-6.39-3-7.93-9.34-7-1.63.23-3.27.55-4.92.64-9,.46-15.95,10-13.26,18.72.29,1,2.07,1.94,3.24,2C3734.66,78.75,3739.31,78.84,3744,79.05Zm-.88,12.19c8,9,18.62,13.42,26.75,12,1.75-.31,4.2-2.95,4.38-4.7.65-6.52-1.62-12.46-5.71-17.56-3.35-4.17-6.5-4.43-10.65-1.21Zm-118,230.89.7-1.17-38.07-30.28c-1.77,4.45-2.9,7.73-4.37,10.85-1.59,3.36-.63,5,2.8,6.26,11.82,4.35,23.53,9,35.3,13.45A29.29,29.29,0,0,0,3625.12,322.13Zm190.37-292c-.31-8.16-16.37-24.26-23.24-24.29-1.1,0-3.27,2.4-3.14,3.46.86,7,15.62,21.5,22.65,22.36C3813.08,31.82,3814.57,30.53,3815.49,30.13Zm-80.58,52.72v-.19c-2.64,0-5.3-.16-7.92.08a4.44,4.44,0,0,0-3.1,1.66c-.4.65.17,2.26.79,3.09,3.29,4.46,17.22,4.5,20.49.08,1.78-2.4,1.79-4.44-1.84-4.68C3740.54,82.7,3737.72,82.85,3734.91,82.85Z"/><path class="cls-1" d="M0,170H348.47c8,0,8,0,8,8.24,0,34-.11,68,.11,102,0,5-1.32,6.46-6.43,6.45q-106.74-.26-213.48-.12c-7.1,0-7.12,0-7.12,7q0,74,0,148c0,6.82,0,6.83,6.86,6.84q80,0,160-.1c4.71,0,6.27,1.13,6.24,6.07q-.31,52.25,0,104.49c0,4.62-1.26,5.94-5.89,5.92-53.32-.15-106.65-.09-160-.09-7.19,0-7.2,0-7.21,7.06V743.23c0,6.86,0,6.89,6.94,6.89H358c7.6,0,7.6,0,7.6,7.59v102c0,6.89,0,6.89-6.71,6.89q-176,0-352,0c-2.32,0-4.63.26-6.95.4Z"/><path class="cls-1" d="M2563,0c-5.9,26.73-13.08,53-28.39,76.21-18.2,27.63-44,40.31-76.91,40-21.19-.22-40.91-6.44-60.63-13.06-17.79-6-35.38-12.67-53.45-17.64-9.27-2.54-19.41-2.81-29.13-2.62a29.44,29.44,0,0,0-24.09,13.31c-4.8,7.06-8.38,15-12,22.77-1.23,2.61-2.24,3.94-5.29,3.92-16.49-.13-33-.08-49.48,0-2.67,0-4.68-.31-4-3.87,5.68-28.15,14-55.24,32.82-77.76,21.79-26.06,49.73-37.13,83.63-34.18,23.78,2.07,45.32,11.48,67.41,19.12,12.41,4.29,24.53,9.48,37.05,13.38,32.3,10.08,51.75-7.8,60.4-32.46,1.7-4.84,3.69-6.56,8.71-6.31,5.42.27,10.9-.44,16.35-.73Z"/><path class="cls-1" d="M1724.23,518q0-170.22,0-340.45c0-7.49,0-7.52,7.28-7.51,66,.13,132-.52,198,.72,33.84.63,67.2,7,98.34,21.16,50.3,22.85,81.52,62.4,97.77,114.45,8.34,26.74,13.73,54.08,15.12,82.12.49,9.8.93,19.62.93,29.43,0,73.16.64,146.32-.3,219.46-.51,39.13-7.94,77.5-23.43,113.61-24.14,56.28-66.54,91.47-126.27,105.69a366.36,366.36,0,0,1-85,9.94q-88,0-176,0c-6.44,0-6.46,0-6.46-6.68Q1724.22,689,1724.23,518Zm128.53,0h0V741.47c0,1.5.08,3,0,4.5-.12,3,1.29,4.3,4.2,4.22,22.94-.61,46.29,1.3,68.73-2.37,38.85-6.35,67.22-27.53,78.77-67.29,6.94-23.9,8.78-48.39,8.75-73q-.09-99.72-.8-199.44a197.69,197.69,0,0,0-7.14-50.71c-7.34-27.09-21.22-49.08-48.16-60.68-15-6.47-30.85-9.43-47-9.93-16.48-.51-33-.15-49.49-.16-7.78,0-7.79,0-7.79,7.94Z"/><path class="cls-1" d="M3072.6,518.07c0,50.33,1,100.68-.34,151-1.05,38.12-9,75.3-26.75,109.59-24.6,47.53-63.45,76.79-115.48,89.12a306.32,306.32,0,0,1-92.64,7.64c-33.14-2.36-65.68-8.31-95.47-24.26-41.34-22.13-67.63-56.79-82.44-100.61-10.9-32.24-15.75-65.62-15.91-99.54-.24-52.16.31-104.31.43-156.46.08-33.66.44-67.34-.13-101-.6-35.57,3.65-70.39,14.58-104.2,20.75-64.18,63.2-105.37,129.56-121a301.92,301.92,0,0,1,87.17-7.76c31.32,1.85,62.2,6.89,91,20.24,47.35,21.95,76.64,59.58,92.35,108.48a276.16,276.16,0,0,1,13.11,68.35c.76,12.95,1.07,25.94,1.11,38.91.13,40.5.05,81,.05,121.49Zm-299.94,0c0,48.82-.37,97.64.23,146.44.17,14,2.32,28.15,5.06,41.93,2.66,13.36,8.05,26.28,20,34.1,37.36,24.51,75.86,25.55,115.05,4.09,10.27-5.63,16.94-14.18,21.52-24.73,7.58-17.46,9.64-36,9.64-54.64q0-153.92-.85-307.83a104.34,104.34,0,0,0-8.1-39.34c-3.79-9.18-8.75-17.67-17.41-23.21-31.64-20.21-64.92-23.4-100.05-10.09-22.3,8.44-36.15,24-40.35,47.33-2.37,13.19-4.37,26.65-4.51,40C2772.34,420.73,2772.66,469.38,2772.66,518Z"/><path class="cls-1" d="M2141.73,866.61c2-8.64,3.82-16.68,5.76-24.69q40.74-168,81.5-336.08,38.55-159.07,77.06-318.17c1-4.36,2.39-8.67,3.08-13.08.58-3.67,2.49-4.6,5.82-4.51,5.49.15,11,0,16.49,0,46.16,0,92.32.07,138.47-.1,4.87,0,6.8,1.34,8,6.27q43.1,183.83,86.55,367.57,32,135.78,63.9,271.57,5.54,23.52,11.07,47a35.27,35.27,0,0,1,.4,4.15h-5.51c-36.83,0-73.65-.11-110.48.13-5.11,0-7.23-1.36-8.35-6.45-9.87-44.93-20.06-89.78-30-134.7-1-4.49-2.64-6.13-7.54-6.11q-84.48.3-169,0c-4.9,0-6.93,1.44-8.1,6.2-11,44.64-22.18,89.22-33.3,133.82-1.77,7.09-1.73,7.1-9.19,7.1H2141.73Zm184.19-263.7c3.14.15,5.25.35,7.36.35h114.49c9.32,0,9.32,0,7.33-8.9q-30.36-135.14-60.75-270.27a31.42,31.42,0,0,0-1.84-4.63l-2.14,0C2368.86,413.69,2347.41,508,2325.92,602.91Z"/><path class="cls-1" d="M1196.53,866.2c2.78-11.67,5.44-22.94,8.17-34.2q40.29-166.38,80.62-332.77,26.28-108.5,52.54-217c8.52-35.19,17.1-70.38,25.44-105.62,1.13-4.79,2.9-6.74,8.2-6.72q76.5.33,153,0c5.23,0,7.08,1.77,8.22,6.67q31.11,132.95,62.51,265.81,35.22,149.64,70.4,299.28c9.35,39.77,18.62,79.57,28.16,119.29,1.1,4.62.3,5.77-4.43,5.75q-56-.23-112,0c-4.51,0-6-1.64-6.92-5.63-6.91-31.31-14-62.58-21-93.86-3.08-13.78-6.28-27.53-9.1-41.37-1-4.67-2.73-6.41-7.82-6.39q-84.51.31-169,0c-5.06,0-6.8,1.72-8,6.36-11.17,45.29-22.61,90.52-33.83,135.8-.85,3.41-2,5.07-5.85,5-38.33-.13-76.66-.07-115-.09C1199.66,866.59,1198.38,866.37,1196.53,866.2Zm184.2-263.47c3,.2,5.08.46,7.19.46q58,0,116,0c1.34,0,2.67,0,4-.06,2.44-.08,3.84-1,3-3.75-.38-1.26-.51-2.6-.8-3.9q-30.42-135.64-60.91-271.29c-.36-1.58-1.64-3-2.49-4.43-1,1.55-2.38,3-2.78,4.66-2.57,10.66-4.89,21.37-7.32,32.06Q1413.25,459.25,1389.86,562C1386.85,575.24,1383.91,588.51,1380.73,602.73Z"/><path class="cls-1" d="M704.91,362c-5-11.77-9.24-23.55-15-34.53-8.79-16.88-18.89-33-34.79-44.45-25.78-18.59-69.33-20.23-94.49.63-13.21,11-20.37,25.42-23.47,41.8-4.9,25.8-.42,49.19,20.6,67.09,9.24,7.87,18.49,16,28.77,22.36q35.46,21.92,72,42.1c29.61,16.41,59,33.1,85,55,33.7,28.44,60.64,61.71,74.33,104.37,8.15,25.37,9.84,51.39,8.09,77.88-1.53,23.28-6.06,45.82-14.9,67.35-19.6,47.7-54.59,79.68-102.33,97.91-36.13,13.79-73.82,17.84-112.29,16.33-45.53-1.8-86.22-16.86-122.24-44.48-25.5-19.56-43.76-45-58.08-73.48-11.63-23.13-20.15-47.4-26.86-72.36-.92-3.44-.33-4.57,3.25-5.34,39.11-8.46,78.17-17.11,117.26-25.68,1.59-.35,3.26-.41,5-.62,2,8,3.64,16,5.89,23.72,7.44,25.68,19,49.09,39.18,67.3,15.81,14.23,34.42,22.15,55.74,22.36,38.71.39,75-30.92,80.8-69.19,4.45-29.33-3.73-54.45-24.48-75.76-22.35-23-48.86-40.09-76.39-55.86-25.57-14.64-51.7-28.36-76.81-43.74-33.79-20.7-63.79-45.91-86.16-79.24-16.29-24.27-24.55-50.92-25.49-80.16-.83-25.94.15-51.58,8.28-76.44,13-39.88,34.27-73.91,70.67-96.74,22-13.82,46.36-21.46,71.83-25.78a299.13,299.13,0,0,1,63.65-3.95C700.82,164,761.14,198.68,798.72,269.9A240.61,240.61,0,0,1,819,324c.89,3.56-.11,4.75-3.25,5.67q-53.58,15.79-107.1,31.7A32.75,32.75,0,0,1,704.91,362Z"/><path class="cls-1" d="M1127.63,576.7v283c0,6.91,0,6.91-6.68,6.91H1006c-7,0-7,0-7-7.23v-562c0-10.81,0-10.81-10.93-10.81H853.5c-6.62,0-6.65,0-6.65-6.64q0-51.49,0-103c0-6.81.09-6.88,7.06-6.88h419c6.77,0,6.78,0,6.78,6.95,0,34.5-.09,69,.1,103.5,0,4.78-1.27,6.2-6.13,6.18-46.5-.18-93-.11-139.5-.11-6.49,0-6.51,0-6.51,6.63Z"/><path class="cls-1" d="M3947.45,223.15c-5.83,6.77-6.67,14.72-4.19,22.68,3.71,11.88,8,23.61,12.57,35.18a59.9,59.9,0,0,1,3.78,27.4c-.46,5.89-1.52,6.91-7.31,6.21-25.94-3.1-49.93-12-72.9-24.22-18-9.63-36.48-18.51-54.75-27.74-.87-.44-1.7-1-3.2-1.8,4.33-8,8.32-16.05,12.87-23.74,16-27.12,34.81-51.93,59-72.47,22.07-18.7,47.52-28.75,75.93-32.38,27.62-3.52,54.31,1.39,80.81,8.28,4,1,7,.46,10.7-1.54a81.66,81.66,0,0,1,18.8-7.38c4.87-1.23,5.71.41,3.92,5.08-1.49,3.88-2.95,7.78-4.66,11.57-1.2,2.66-.66,4.26,1.92,5.62,3.54,1.85,6.86,4.1,10.39,6,2.48,1.32,2.92,2.87,1.47,5.22-8.45,13.66-13,28.43-14.4,44.52-1.64,18.42-9.8,35.11-16,52.27-3.91,10.78-7.74,21.6-12,32.24-5.56,13.79-8.49,28-7.49,42.83.4,5.92-1.24,9.5-6.87,12-7.11,3.21-13.76,7.42-20.64,11.15-6.12,3.32-12.07,2.89-17.87-.93-10.7-7-21.48-14-32.08-21.16-1.14-.78-1.91-3.16-1.73-4.68.95-8.22,2.56-16.37,3.34-24.6.58-6.18,1.6-12.82,0-18.6a339.19,339.19,0,0,0-13.2-38.11C3949.84,242.72,3946,233.68,3947.45,223.15Z"/></g></g></svg>