<?xml version="1.0" encoding="utf-8"?>
<!-- Generator: Adobe Illustrator 25.2.1, SVG Export Plug-In . SVG Version: 6.00 Build 0)  -->
<svg version="1.1" id="Camada_1" xmlns="http://www.w3.org/2000/svg" xmlns:xlink="http://www.w3.org/1999/xlink" x="0px" y="0px"
	 viewBox="0 0 543.8 130.4" style="enable-background:new 0 0 543.8 130.4;" xml:space="preserve">
<style type="text/css">
	.st0{fill:#F7F7F7;}
</style>
<g>
	<g>
		<path class="st0" d="M48.4,123.9c-1.1-0.5-2.1-1.4-2.8-2.5c-0.7-1.2-1-2.5-1-3.8c0-1.3,0.3-2.6,1-3.8c0.7-1.1,1.6-1.9,2.8-2.5
			c2.6-1.2,5.6-1.2,8.3,0c1.1,0.5,2.1,1.4,2.8,2.5c0.7,1.1,1,2.4,1,3.8c0,1.3-0.3,2.7-1,3.8c-0.7,1.1-1.6,1.9-2.8,2.5
			C54,125,51,125,48.4,123.9L48.4,123.9z M55.6,120.7c0.8-0.9,1.2-2,1.1-3.1c0.1-1.2-0.3-2.3-1.1-3.2c-1.8-1.5-4.4-1.5-6.2,0
			c-0.8,0.9-1.2,2-1.1,3.2c0,1.2,0.4,2.3,1.1,3.1C51.1,122.4,53.8,122.4,55.6,120.7z"/>
		<path class="st0" d="M69.8,110.9h3.3v1.8c0.6-0.7,1.3-1.2,2.1-1.6c0.8-0.4,1.6-0.6,2.4-0.6c0.9,0,1.7,0.1,2.5,0.5
			c0.6,0.3,1.1,0.9,1.4,1.5c0.6-0.7,1.3-1.2,2.2-1.5c0.8-0.3,1.7-0.5,2.5-0.5c1.3-0.1,2.6,0.3,3.6,1.3c0.8,1.1,1.2,2.4,1.1,3.7v8.9
			h-3.4v-8.4c0.1-0.7-0.1-1.4-0.6-2c-0.5-0.4-1.2-0.7-1.8-0.6c-0.6,0-1.1,0.1-1.6,0.4c-0.5,0.3-1,0.7-1.4,1.2c0,0.6,0.1,1.1,0.1,1.5
			v8.1h-3.4v-8.5c0.1-0.7-0.1-1.4-0.5-2c-0.5-0.4-1.1-0.6-1.7-0.6c-1.4,0.1-2.7,0.9-3.4,2.1v8.9h-3.4V110.9z"/>
		<path class="st0" d="M94.1,122.9c-1.5-1.3-2.3-3.2-2.2-5.2c-0.1-1.9,0.6-3.8,1.9-5.2c1.5-1.4,3.5-2.1,5.5-1.9c1.4,0,2.8,0.3,4,0.9
			c1.1,0.6,1.9,1.4,2.5,2.5c0.6,1.1,0.9,2.3,0.8,3.5v1.6H95.3c0.2,2,2,3,5.2,3c0.9,0,1.8-0.1,2.6-0.2c0.8-0.1,1.6-0.3,2.4-0.6v2.7
			c-0.8,0.3-1.6,0.5-2.4,0.6c-1,0.2-2,0.3-3,0.2C97.9,124.8,95.8,124.2,94.1,122.9z M103.4,116.6c0-1-0.4-1.9-1.1-2.5
			c-0.9-0.6-1.9-0.9-2.9-0.9c-1-0.1-2.1,0.3-2.9,0.9c-0.7,0.6-1.1,1.5-1.1,2.4L103.4,116.6z"/>
		<path class="st0" d="M107.8,103.7h3.5v20.7h-3.5V103.7z"/>
		<path class="st0" d="M113,103.7h3.5v9c1.2-1.4,3-2.2,4.9-2.1c1.5-0.1,3,0.4,4.1,1.5c0.9,1.1,1.4,2.5,1.3,3.9v8.5h-3.5v-8.1
			c0-2-0.9-2.9-2.7-2.9c-0.8,0-1.6,0.2-2.3,0.6c-0.7,0.4-1.4,1-1.8,1.7v8.8H113V103.7z"/>
		<path class="st0" d="M131.1,123.9c-1.1-0.5-2.1-1.4-2.8-2.5c-1.3-2.4-1.3-5.2,0-7.6c0.7-1.1,1.6-1.9,2.8-2.5
			c2.6-1.2,5.6-1.2,8.3,0c1.1,0.5,2.1,1.4,2.8,2.5c0.7,1.1,1,2.4,1,3.8c0,1.3-0.3,2.7-1,3.8c-0.7,1.1-1.6,1.9-2.8,2.5
			C136.7,125,133.7,125,131.1,123.9L131.1,123.9z M138.3,120.7c1.5-1.8,1.5-4.5,0-6.4c-1.8-1.5-4.4-1.5-6.2,0
			c-0.8,0.9-1.2,2-1.1,3.2c0,1.2,0.4,2.3,1.1,3.1C133.8,122.4,136.5,122.4,138.3,120.7L138.3,120.7z"/>
		<path class="st0" d="M144.2,110.9h3.4v2.1c0.6-0.8,1.4-1.3,2.3-1.6c1.1-0.4,2.3-0.5,3.4-0.5v2.7c-1.2,0-2.4,0.2-3.5,0.6
			c-0.9,0.4-1.7,1.1-2.1,2v8.1h-3.5V110.9z"/>
		<path class="st0" d="M162.8,108c-0.4-0.4-0.6-0.9-0.6-1.4c0-1.1,0.8-2,1.9-2c0,0,0.1,0,0.1,0c0.5,0,1,0.2,1.4,0.6
			c0.4,0.4,0.6,0.9,0.6,1.4c0,0.5-0.2,1-0.6,1.4c-0.4,0.4-0.9,0.6-1.4,0.6C163.7,108.5,163.2,108.3,162.8,108z M162.4,110.9h3.6
			v13.4h-3.6V110.9z"/>
		<path class="st0" d="M167.8,110.9h3.4v1.8c0.6-0.7,1.4-1.3,2.3-1.7c0.9-0.4,1.8-0.5,2.8-0.5c1.5-0.1,3,0.4,4.1,1.5
			c0.9,1.1,1.4,2.5,1.3,3.9v8.5h-3.5v-8.1c0-2-0.9-2.9-2.8-2.9c-0.8,0-1.6,0.2-2.3,0.6c-0.7,0.4-1.4,1-1.8,1.7v8.8h-3.5V110.9z"/>
		<path class="st0" d="M181.4,110.9h3.6l3.6,9.3l3.6-9.3h3.6l-5.5,13.4h-3.3L181.4,110.9z"/>
		<path class="st0" d="M197.3,122.9c-1.5-1.3-2.3-3.2-2.2-5.2c-0.1-1.9,0.6-3.8,1.9-5.2c1.5-1.4,3.5-2.1,5.5-1.9
			c1.4,0,2.8,0.3,4,0.9c1.1,0.6,1.9,1.4,2.5,2.5c0.6,1.1,0.9,2.3,0.8,3.5v1.6h-11.4c0.2,2,2,3,5.2,3c0.9,0,1.8-0.1,2.6-0.2
			c0.8-0.1,1.6-0.3,2.4-0.6v2.7c-0.8,0.3-1.6,0.5-2.4,0.6c-1,0.2-2,0.3-3,0.2C201.1,124.8,199,124.2,197.3,122.9z M206.6,116.6
			c0-1-0.4-1.9-1.1-2.5c-0.9-0.6-1.9-0.9-2.9-0.9c-1-0.1-2.1,0.3-2.9,0.9c-0.7,0.6-1.1,1.5-1.1,2.4L206.6,116.6z"/>
		<path class="st0" d="M213.2,124.4c-0.9-0.2-1.8-0.5-2.6-0.9v-3c0.8,0.5,1.7,0.9,2.6,1.1c0.9,0.3,1.9,0.4,2.9,0.4
			c0.7,0,1.4,0,2-0.2c0.4-0.1,0.6-0.5,0.6-0.9c0-0.3-0.1-0.6-0.3-0.8c-0.3-0.3-0.6-0.5-1-0.6c-0.5-0.2-1.2-0.4-2.2-0.7
			c-0.9-0.2-1.8-0.6-2.6-1c-0.6-0.3-1.1-0.7-1.5-1.3c-0.4-0.6-0.5-1.3-0.5-2c0-1.2,0.6-2.4,1.6-3c1.3-0.7,2.8-1.1,4.3-1
			c0.9,0,1.9,0.1,2.8,0.3c0.8,0.1,1.5,0.4,2.2,0.8v2.9c-0.6-0.4-1.3-0.6-2-0.8c-0.8-0.2-1.6-0.3-2.5-0.3c-0.7,0-1.4,0.1-2.1,0.3
			c-0.4,0.1-0.7,0.5-0.7,1c0,0.3,0.1,0.6,0.4,0.8c0.3,0.2,0.6,0.4,1,0.5c0.4,0.1,1.1,0.4,2.2,0.6c0.9,0.2,1.9,0.6,2.7,1
			c0.6,0.3,1.1,0.8,1.4,1.3c0.3,0.6,0.4,1.3,0.4,2c0,1.2-0.6,2.2-1.5,2.9c-1.3,0.8-2.9,1.2-4.4,1.1
			C215.3,124.7,214.2,124.6,213.2,124.4z"/>
		<path class="st0" d="M224.9,123.5c-0.8-1-1.2-2.2-1.1-3.5v-6.5h-2v-2.7h2v-4h3.5v4h3.2v2.7h-3.2v6c-0.1,0.6,0.1,1.3,0.5,1.8
			c0.5,0.4,1.1,0.6,1.7,0.5c0.6,0,1.2-0.1,1.7-0.4v2.7c-0.9,0.3-1.9,0.5-2.9,0.5C227,124.8,225.8,124.4,224.9,123.5z"/>
		<path class="st0" d="M232.6,108c-0.4-0.4-0.6-0.9-0.6-1.4c0-0.5,0.2-1,0.6-1.4c0.8-0.8,2-0.8,2.8,0c0.4,0.4,0.6,0.9,0.6,1.4
			c0,0.5-0.2,1-0.6,1.4C234.6,108.7,233.4,108.7,232.6,108z M232.2,110.9h3.6v13.4h-3.6L232.2,110.9z"/>
		<path class="st0" d="M237.7,110.9h3.3v1.8c0.6-0.7,1.3-1.2,2.1-1.6c0.8-0.4,1.6-0.6,2.4-0.6c0.9,0,1.7,0.1,2.5,0.5
			c0.6,0.3,1.1,0.9,1.4,1.5c0.6-0.7,1.3-1.2,2.2-1.5c0.8-0.3,1.7-0.5,2.5-0.5c1.3-0.1,2.7,0.3,3.6,1.3c0.8,1.1,1.2,2.4,1.1,3.7v8.9
			h-3.4v-8.4c0.1-0.7-0.1-1.4-0.6-2c-0.5-0.5-1.2-0.7-1.8-0.6c-0.6,0-1.1,0.1-1.6,0.4c-0.5,0.3-1,0.7-1.4,1.2c0,0.6,0.1,1.1,0.1,1.5
			v8.1h-3.4v-8.5c0.1-0.7-0.1-1.4-0.5-2c-0.5-0.4-1.1-0.6-1.7-0.6c-1.4,0.1-2.7,0.9-3.4,2.1v8.9h-3.4V110.9z"/>
		<path class="st0" d="M262,122.9c-1.5-1.3-2.2-3.2-2.1-5.2c-0.1-1.9,0.6-3.8,1.9-5.2c1.5-1.4,3.5-2.1,5.5-1.9c1.4,0,2.8,0.3,4,0.9
			c1.1,0.6,1.9,1.4,2.5,2.5c0.6,1.1,0.9,2.3,0.8,3.5v1.6h-11.5c0.2,2,2,3,5.2,3c0.9,0,1.8-0.1,2.6-0.2c0.8-0.1,1.6-0.3,2.4-0.6v2.7
			c-0.8,0.3-1.6,0.5-2.5,0.6c-1,0.2-2,0.3-3,0.2C265.8,124.9,263.6,124.2,262,122.9z M271.3,116.6c0-1-0.4-1.9-1.1-2.5
			c-0.9-0.6-1.9-0.9-3-0.9c-1-0.1-2.1,0.3-2.9,0.9c-0.7,0.6-1.1,1.5-1.1,2.4L271.3,116.6z"/>
		<path class="st0" d="M275.7,110.9h3.4v1.8c0.6-0.7,1.4-1.3,2.3-1.7c0.9-0.4,1.8-0.5,2.8-0.5c1.5-0.1,3,0.4,4.1,1.5
			c0.9,1.1,1.4,2.5,1.3,3.9v8.5H286v-8.1c0-2-0.9-2.9-2.7-2.9c-0.8,0-1.6,0.2-2.3,0.6c-0.7,0.4-1.4,1-1.8,1.7v8.8h-3.5L275.7,110.9z
			"/>
		<path class="st0" d="M293.1,123.5c-0.8-1-1.2-2.2-1.1-3.5v-6.5h-2v-2.7h2v-4h3.5v4h3.2v2.7h-3.2v6c-0.1,0.6,0.1,1.3,0.5,1.8
			c0.5,0.4,1.1,0.6,1.7,0.5c0.6,0,1.2-0.1,1.7-0.4v2.7c-0.9,0.3-1.9,0.5-2.9,0.5C295.2,124.8,294,124.4,293.1,123.5z"/>
		<path class="st0" d="M303.2,123.9c-1.1-0.5-2.1-1.4-2.8-2.5c-1.3-2.4-1.3-5.2,0-7.6c0.7-1.1,1.6-1.9,2.8-2.5
			c2.6-1.2,5.6-1.2,8.3,0c1.1,0.5,2.1,1.4,2.8,2.5c0.7,1.1,1,2.4,1,3.8c0,1.3-0.3,2.7-1,3.8c-0.7,1.1-1.6,1.9-2.8,2.5
			C308.9,125,305.9,125,303.2,123.9L303.2,123.9z M310.4,120.7c1.5-1.8,1.5-4.5,0-6.4c-1.8-1.5-4.4-1.5-6.2,0
			c-0.8,0.9-1.2,2-1.1,3.2c0,1.2,0.4,2.3,1.1,3.1C306,122.4,308.7,122.4,310.4,120.7L310.4,120.7z"/>
		<path class="st0" d="M327.5,123.8c-1.1-0.6-1.9-1.4-2.5-2.5c-1.2-2.3-1.2-5.1,0-7.5c0.6-1.1,1.5-1.9,2.5-2.5
			c1.1-0.6,2.4-0.9,3.6-0.9c1.9-0.1,3.8,0.5,5.2,1.7v-8.5h3.5v20.7h-3.4v-1.6c-0.7,0.7-1.5,1.2-2.4,1.5c-0.9,0.3-1.9,0.5-2.9,0.5
			C329.9,124.8,328.6,124.5,327.5,123.8z M334.7,121.1c0.8-0.5,1.4-1.3,1.6-2.2v-2.7c-0.3-0.9-0.9-1.7-1.6-2.2
			c-0.8-0.5-1.7-0.8-2.7-0.8c-2.3-0.1-4.3,1.7-4.4,4.1c0,0.1,0,0.2,0,0.3c0,1.2,0.4,2.3,1.2,3.1c0.8,0.8,2,1.2,3.1,1.2
			C333,122,333.9,121.7,334.7,121.1z"/>
		<path class="st0" d="M344.3,123.9c-1.1-0.5-2.1-1.4-2.8-2.5c-0.7-1.2-1-2.5-1-3.8c0-1.3,0.3-2.6,1-3.8c0.7-1.1,1.6-1.9,2.8-2.5
			c2.6-1.2,5.6-1.2,8.3,0c1.1,0.5,2.1,1.4,2.8,2.5c0.7,1.1,1,2.4,1,3.8c0,1.3-0.3,2.7-1,3.8c-0.7,1.1-1.6,1.9-2.8,2.5
			C349.9,125,347,125,344.3,123.9L344.3,123.9z M351.5,120.7c0.8-0.9,1.2-2,1.1-3.1c0.1-1.2-0.3-2.3-1.1-3.2c-1.8-1.5-4.4-1.5-6.2,0
			c-1.5,1.8-1.5,4.5,0,6.4C347.1,122.4,349.8,122.4,351.5,120.7L351.5,120.7z"/>
		<path class="st0" d="M367.8,124.4c-0.9-0.2-1.8-0.5-2.6-0.9v-3c0.8,0.5,1.7,0.9,2.6,1.1c0.9,0.3,1.9,0.4,2.9,0.4
			c0.7,0,1.4,0,2-0.2c0.4-0.1,0.6-0.5,0.6-0.9c0-0.3-0.1-0.6-0.3-0.8c-0.3-0.3-0.6-0.5-1-0.6c-0.5-0.2-1.2-0.4-2.2-0.7
			c-0.9-0.2-1.8-0.6-2.6-1c-1.3-0.6-2.1-1.9-2-3.3c0-1.2,0.6-2.4,1.6-3c1.3-0.7,2.8-1.1,4.3-1c0.9,0,1.9,0.1,2.8,0.3
			c0.8,0.1,1.5,0.4,2.2,0.8v2.9c-0.6-0.4-1.3-0.6-2-0.8c-0.8-0.2-1.6-0.3-2.5-0.3c-0.7,0-1.4,0.1-2.1,0.3c-0.4,0.1-0.7,0.5-0.7,1
			c0,0.3,0.1,0.6,0.4,0.8c0.3,0.2,0.6,0.4,1,0.5c0.4,0.1,1.2,0.4,2.2,0.6c0.9,0.2,1.8,0.6,2.7,1c0.6,0.3,1.1,0.8,1.4,1.3
			c0.3,0.6,0.5,1.3,0.4,2c0,1.2-0.6,2.2-1.5,2.9c-1.3,0.8-2.9,1.2-4.4,1.1C369.9,124.7,368.9,124.6,367.8,124.4z"/>
		<path class="st0" d="M379.6,122.9c-1.5-1.3-2.3-3.2-2.2-5.2c-0.1-1.9,0.6-3.8,1.9-5.2c1.5-1.4,3.5-2.1,5.5-1.9
			c1.4,0,2.8,0.3,4,0.9c1.1,0.6,1.9,1.4,2.5,2.5c0.6,1.1,0.9,2.3,0.8,3.5v1.6h-11.4c0.2,2,2,3,5.2,3c0.9,0,1.8-0.1,2.6-0.2
			c0.8-0.1,1.6-0.3,2.4-0.6v2.7c-0.8,0.3-1.6,0.5-2.5,0.6c-1,0.2-2,0.3-3,0.2C383.4,124.9,381.3,124.2,379.6,122.9z M388.9,116.6
			c0-1-0.4-1.9-1.1-2.5c-0.9-0.6-1.9-0.9-3-0.9c-1-0.1-2.1,0.3-2.9,0.9c-0.7,0.6-1.1,1.5-1.1,2.4L388.9,116.6z"/>
		<path class="st0" d="M394.5,123.2c-0.9-1.1-1.4-2.5-1.3-3.9v-8.5h3.5v8.1c0,2,0.9,2.9,2.7,2.9c0.8,0,1.6-0.2,2.3-0.6
			c0.7-0.4,1.4-1,1.8-1.7v-8.8h3.5v13.4h-3.4v-1.8c-0.6,0.7-1.4,1.3-2.3,1.7c-0.9,0.4-1.8,0.5-2.8,0.5
			C397.1,124.8,395.6,124.3,394.5,123.2z"/>
		<path class="st0" d="M419.1,123.5c-0.8-1-1.2-2.2-1.1-3.5v-6.5h-2v-2.7h2v-4h3.5v4h3.2v2.7h-3.2v6c-0.1,0.6,0.1,1.3,0.5,1.8
			c0.5,0.4,1.1,0.6,1.7,0.5c0.6,0,1.2-0.1,1.7-0.4v2.7c-0.9,0.3-1.9,0.5-2.9,0.5C421.2,124.8,420,124.4,419.1,123.5z"/>
		<path class="st0" d="M427.8,122.9c-1.5-1.3-2.3-3.2-2.2-5.2c-0.1-1.9,0.6-3.8,1.9-5.2c1.5-1.4,3.5-2.1,5.5-1.9
			c1.4,0,2.8,0.3,4,0.9c1.1,0.6,1.9,1.4,2.5,2.5c0.6,1.1,0.9,2.3,0.8,3.5v1.6H429c0.2,2,2,3,5.2,3c0.9,0,1.8-0.1,2.6-0.2
			c0.8-0.1,1.6-0.3,2.4-0.6v2.7c-0.8,0.3-1.6,0.5-2.5,0.6c-1,0.2-2,0.3-3,0.2C431.6,124.8,429.5,124.2,427.8,122.9z M437.1,116.6
			c0-1-0.4-1.9-1.1-2.5c-0.9-0.6-1.9-0.9-3-0.9c-1-0.1-2.1,0.3-2.9,0.9c-0.7,0.6-1.1,1.5-1.1,2.4L437.1,116.6z"/>
		<path class="st0" d="M441.5,110.9h3.3v1.8c0.6-0.7,1.3-1.2,2.1-1.6c0.8-0.4,1.6-0.6,2.4-0.6c0.9,0,1.7,0.1,2.5,0.5
			c0.6,0.3,1.1,0.9,1.4,1.5c0.6-0.7,1.3-1.2,2.2-1.5c0.8-0.3,1.7-0.5,2.5-0.5c1.3-0.1,2.7,0.3,3.6,1.3c0.8,1.1,1.2,2.4,1.1,3.7v8.9
			h-3.4v-8.4c0.1-0.7-0.1-1.4-0.6-2c-0.5-0.5-1.2-0.7-1.8-0.6c-0.6,0-1.1,0.1-1.6,0.4c-0.5,0.3-1,0.7-1.4,1.2c0,0.6,0.1,1.1,0.1,1.5
			v8.1h-3.4v-8.5c0.1-0.7-0.1-1.4-0.5-2c-0.5-0.4-1.1-0.6-1.7-0.6c-1.4,0.1-2.7,0.9-3.4,2.1v8.9h-3.4L441.5,110.9z"/>
		<path class="st0" d="M464.2,110.9h3.4v1.6c0.7-0.7,1.5-1.2,2.4-1.5c0.9-0.3,1.9-0.5,2.9-0.5c1.3,0,2.5,0.3,3.7,0.9
			c1.1,0.6,1.9,1.4,2.5,2.5c1.2,2.3,1.2,5.1,0,7.5c-0.6,1.1-1.5,1.9-2.5,2.5c-1.1,0.6-2.4,0.9-3.7,0.9c-1,0-2-0.1-2.9-0.4
			c-0.9-0.3-1.6-0.7-2.3-1.3v7.4h-3.5V110.9z M475.2,120.7c0.8-0.8,1.3-2,1.2-3.2c0-1.2-0.4-2.3-1.2-3.1c-0.8-0.8-2-1.2-3.1-1.2
			c-1,0-1.9,0.3-2.7,0.8c-0.8,0.5-1.3,1.3-1.7,2.2v2.7c0.3,0.9,0.9,1.7,1.6,2.2c0.8,0.5,1.7,0.8,2.7,0.8
			C473.2,122,474.4,121.5,475.2,120.7L475.2,120.7z"/>
		<path class="st0" d="M483.6,123.9c-1.1-0.5-2.1-1.4-2.8-2.5c-0.7-1.2-1-2.5-1-3.8c0-1.3,0.3-2.6,1-3.8c0.7-1.1,1.6-1.9,2.8-2.5
			c2.6-1.2,5.6-1.2,8.3,0c1.1,0.5,2.1,1.4,2.8,2.5c0.7,1.1,1,2.4,1,3.8c0,1.3-0.3,2.7-1,3.8c-0.6,1.1-1.6,1.9-2.7,2.5
			C489.2,125,486.2,125,483.6,123.9L483.6,123.9z M490.8,120.7c0.8-0.9,1.2-2,1.1-3.1c0.1-1.2-0.3-2.3-1.1-3.2
			c-1.8-1.5-4.4-1.5-6.2,0c-1.5,1.8-1.5,4.5,0,6.4C486.3,122.4,489,122.4,490.8,120.7L490.8,120.7z"/>
	</g>
</g>
<path class="st0" d="M80.8,87v-1.5c14.6,0,23.3-8.8,41.3-35L97,13.5c-4.3-6.5-6.8-9-14.1-9V3h53.9v1.5c-6.1,0-7.2,2.4-7.2,5.5
	c0,2.4,1.3,4.7,2.7,7l12.1,18c8-11.7,13.5-20,13.5-25.1c0-3.9-3-5.3-8.1-5.3V3.1h30.9v1.5c-11.1,0-16.9,6.1-35.1,32.2l26.2,39
	c4.5,6.6,9.1,9.7,14.7,9.7V87h-51.7v-1.5c4.6,0,6.3-1.7,6.3-4.6c0-1.9-1.4-4.5-3.4-7.4l-14.4-21.2c-10.3,15.2-13.2,20-13.2,24.4
	c0,5.1,4,8.8,11,8.8V87L80.8,87z M472.3,37.3c0.7-24.5,5.3-31.1,10.9-31.1s11.1,5.3,10.8,31.1H472.3z M441.3,43.7
	c0,35.4,36.5,53.2,68.1,37.7l-1-1c-20.7,6.9-35.3-8.3-35.3-36.7c0-1.3,0-2.6,0-3.8h50.5c0-24.7-14.3-39.9-39-39.9
	C461.2,0,441.3,19.8,441.3,43.7z M292.1,12.1v-1.4l38.6-9.1v13.4c8.6-6.3,17.7-13.3,27.4-13.3c10.4,0,17.2,4.8,19.8,14
	c8.8-6.5,18.2-14,28.3-14c13.4,0,20.9,8,20.9,23v51c0,7,1.5,8.3,6.5,8.3v1.4h-42V84c4.5,0,6.1-2.1,6.1-7.4V20.4
	c0-10.1-10.4-8.8-19.2-2.3c0.4,2.2,0.6,4.4,0.5,6.5v51.1c0,7,1.5,8.3,6.5,8.3v1.4h-42V84c4.5,0,6.1-2.1,6.1-7.4V20.4
	c0-10-10.1-8.8-18.9-2.5v60.3c0,4.6,2.8,5.9,6.5,5.9v1.4h-45V84c6.1,0,9.1-4.4,9.1-11.1V21.6C301.2,15.2,295,12.1,292.1,12.1z
	 M220.6,66.5c0-10.7,4.7-21,20.1-24.5l0.1,25.5c-0.5,6.6-5.5,10.2-10.2,10.2C225,77.6,220.6,74.1,220.6,66.5L220.6,66.5z
	 M191.1,69.5c0,15.3,14.9,19,21.8,19c12.5,0,24.8-6.9,28.8-16.6c1.6,11.4,8.3,16.6,21.1,16.6c11.2,0,18.5-4.6,23.1-13.1l-1.1-0.7
	c-6.1,5.2-14,1.3-14-9.4V26.2c0-19.7-25.3-29.9-48.3-21.9l0.2,1.4c12.9,0.1,18.5,8.7,18.5,24l0,10C203.8,44.1,191.1,54.1,191.1,69.5
	z M32.6,37.3C33.4,12.8,38,6.2,43.5,6.2s11.1,5.3,10.8,31.1H32.6z M0,45.1c0,38.3,43.6,56.5,76.6,33.1l-1-1
	c-25.4,14.8-43.8,0.1-43.8-32.1c0-1.3,0-2.6,0-3.8h50.5c0-24.6-14.3-39.7-39-39.7C19.9,1.6,0,21.3,0,45.1z M211.3,32.7
	c6.7,0.1,12.3-5.2,12.4-12c0-0.1,0-0.3,0-0.4c0-6.9-5.6-12.4-12.4-12.4c-6.9,0-12.4,5.6-12.4,12.4C198.9,27.1,204.4,32.7,211.3,32.7
	C211.3,32.7,211.3,32.7,211.3,32.7z M531.4,88.6c6.7,0.1,12.3-5.2,12.4-12c0-0.1,0-0.3,0-0.4c0-6.9-5.6-12.4-12.4-12.4
	c-6.9,0-12.4,5.6-12.4,12.4C519,83,524.5,88.6,531.4,88.6L531.4,88.6L531.4,88.6z"/>
</svg>
