<svg xmlns="http://www.w3.org/2000/svg" style="fill:#F7F7F7;" viewBox="0 0 3789.47 1052.8"><g id="Camada_2" data-name="Camada 2"><g id="Camada_1-2" data-name="Camada 1"><path d="M1360.12,834.21V.28H1563c.25,4.82.7,9.36.7,13.89q.06,141,0,282c0,3.87.27,7.73.48,13.29a68.28,68.28,0,0,0,5.66-4.66c41.37-44,92.9-63,152.57-61.77,22.48.45,44.44,4,65.57,11.85,53.88,20,88.43,59,108.49,111.74a262.15,262.15,0,0,1,16.56,83.93c.32,8.65.52,17.32.53,26q0,172,0,344v13.33c-8.74,2.45-188.78,3-201.87.82-.24-4.24-.71-8.75-.72-13.27q-.06-148,0-296c0-14.37-1-28.65-5.41-42.45a119.7,119.7,0,0,0-5.38-14c-23.1-50.18-83.6-47.07-110.61-18.42-14.77,15.67-22.47,34.43-24.79,55.53a209.24,209.24,0,0,0-1,22.95q-.1,145.5,0,291V833.5C1555.31,836.5,1370.86,836.94,1360.12,834.21Z"/><path d="M1094.72,307.89V258c8.4-2.25,178.78-3,193.79-1.16.22.24.45.48.66.74s.53.5.57.79a30.47,30.47,0,0,1,.66,4.91q0,283.95-.11,567.9a10.26,10.26,0,0,1-.74,2.75c-7.64,2.63-183.1,3-193.92.26-1.66-16.39.45-33.27-1.33-51.5-2.59,2.15-4,3-4.91,4.13-28,33.45-64.33,53-106.6,60.07-105.59,17.72-191.57-17-257.32-101-33.37-42.58-52.1-91.8-60.14-145.16C654.7,530.18,664,462.55,696,398.58c29-58.09,71.12-103.85,130.63-131.43,60.82-28.17,123.69-32.82,187.71-11.49a180.52,180.52,0,0,1,73.67,46.5C1089.48,303.71,1091.27,305,1094.72,307.89Zm-115.5,120.5c-66.73-1.08-119.12,46.24-119.88,120.48-.66,64.19,54.7,118.26,119.89,118.25,67.41,0,118-51.25,119-119.15C1098.92,492.85,1058.88,427.75,979.22,428.39Z"/><path d="M0,256.64H223.7L354,590.67l2.76,0q65.94-166.86,132-334.05H706.43c-1.44,4-2.58,7.61-4,11.09q-51.82,125-103.71,250Q490.4,778.9,382.12,1040a32.19,32.19,0,0,0-1.9,4.61c-1.66,6.76-6,8.17-12.61,8.15-66.66-.24-133.32-.14-200-.18-2.86,0-5.72-.38-9.57-.65,1.61-4.32,2.72-7.72,4.12-11,26.74-62.44,53.39-124.92,80.45-187.22,3.56-8.21,4-14.94.34-23.45Q123.72,549.94,5.05,269.33C3.4,265.43,1.92,261.46,0,256.64Z"/><path d="M2918.48,241.72c68.93,1.52,132.49,19.32,188.82,59.55,63.25,45.16,100.88,107,115.39,182.89,10.61,55.54,9.23,110.85-8.84,164.8-29.37,87.7-88.36,148.47-174.43,180.35-106.35,39.39-209.36,30-304.13-34.27-70.16-47.54-109.85-115.69-121.75-199.48-11.68-82.24,4.82-158.62,52.5-227,47.19-67.65,112.91-107,193.91-120.65C2879.26,244.65,2899,243.72,2918.48,241.72ZM2805,547.63c-.11,66,50.7,118,115.4,118.22,72.54.29,117-64.09,117.23-116.58.23-66-52.07-119.48-116.92-119.58C2853.84,429.6,2805.1,479.28,2805,547.63Z"/><path d="M2265.42,241.68c63.21,1.48,122.17,16.75,175.5,50.93,69.6,44.62,111.62,108.43,127.7,189.14,10.84,54.39,9.88,108.76-6.66,162-24.15,77.81-73,136-145.61,172.06-96.18,47.81-194.89,49.67-292,3.92C2033.54,777,1978.93,704,1961.55,604.88c-15.14-86.24,1.6-166.57,52.38-238.37,47-66.42,112.14-104.93,192-118.54C2225.53,244.63,2245.57,243.71,2265.42,241.68Zm118.49,306.87a120.11,120.11,0,0,0-45.2-94C2312.74,434,2283,427,2250.46,431c-28.24,3.47-52.45,15.09-70.78,37.13-23.22,27.92-31.18,60.39-27.08,96.18,6.2,54,50.74,97.28,104.93,101.28C2339,671.57,2385,600,2383.91,548.55Z"/><path d="M3546.27,0h243.2c-1.52,4.08-2.67,7.42-4,10.69q-87.52,211.82-175.07,423.62c-11.19,27.08-22.58,54.07-33.46,81.26-2.51,6.27-5.9,8.39-12.6,8.37-75.3-.22-150.6-.13-225.91-.17-2.6,0-5.2-.41-9.31-.76C3401.66,348.27,3473.87,174.39,3546.27,0Z"/><path d="M3392,575.8c69.58-.46,135.66,54.33,136,135.88.35,77.07-60.53,136.9-136.27,136.63-77.66-.28-135.43-62.44-135.65-136.38C3255.88,636.84,3317,575.84,3392,575.8Z"/></g></g></svg>