<svg xmlns="http://www.w3.org/2000/svg" style="fill:#F7F7F7;" viewBox="0 0 530 94.1"><g id="Camada_2" data-name="Camada 2"><g id="Camada_1-2" data-name="Camada 1"><path d="M530,94c-7,0-14-.09-21,.09-2.66.08-4.53-.44-5.28-3.2a4.65,4.65,0,0,0-.48-.87c-2.82-5.25-4.4-12.53-8.79-15.18S482.87,74,476.89,74c-12.49,0-25-.14-37.47.13a7.49,7.49,0,0,0-5.19,3.15,101.33,101.33,0,0,0-7,13.17c-1.32,2.92-3.17,3.67-6.2,3.62-10.65-.17-21.31.06-32-.18a9.79,9.79,0,0,1-6-2.44c-10.67-10-21-20.38-31.74-30.4a12.06,12.06,0,0,0-6.83-2.85c-5.25-.42-10.56-.13-16.28-.13V93.7H308V0h87c9.15,3.45,13,10,12.24,19.76a125,125,0,0,0,0,19c1.05,13-7.39,20.59-19.22,19.44-4-.39-8.12-.06-13.7-.06l33.37,28c.8-1.22,1.48-2.14,2-3.13q16-29,32-58C446.3,16.72,450.6,8.33,455,0h22a41,41,0,0,0,1.77,4q22.43,39.57,44.94,79.11c1.93,3.38,4.19,6.59,6.29,9.88ZM328.3,43c17.74,0,35,.08,52.28-.06,4.16,0,6.25-2.73,6.33-6.83s.08-8.32,0-12.48c-.1-5.23-2.38-7.54-7.66-7.57-13-.07-25.95,0-38.92,0h-12ZM466.79,18.5l-1.76,0-19.7,37.41H485.9Z"/><path d="M94,0V16H21.37V36.67H63.65V52.86H21.38V76.7H94.43V94H0V0Z"/><path d="M303,0V17.48H260.41V93.63H238.87V17.76H196V0Z"/><path d="M193,0c-4.55,4.58-9,9.22-13.66,13.72-11.19,10.93-22.45,21.79-33.88,32.87A17,17,0,0,1,143,45Q120.35,23.12,97.76,1.23A5.9,5.9,0,0,1,97,0Z"/><path d="M97.41,93.47,145,47.41l47.66,46.06Z"/></g></g></svg>