<svg xmlns="http://www.w3.org/2000/svg" width="26.383" height="27.834" viewBox="0 0 26.383 27.834">
  <g id="Camada_2" data-name="Camada 2" transform="translate(1.283 1.068)">
    <g id="Layer_2" data-name="Layer 2" transform="translate(0 0)">
      <path id="Caminho_90" data-name="Caminho 90" d="M73.585,52.706l5.579-3.057c.632-.345,1.293-1.227,0-1.931L73.585,44.67,69.58,48.7Z" transform="translate(-55.816 -35.872)" fill="none" stroke="#2f3849" stroke-miterlimit="10" stroke-width="2"/>
      <path id="Caminho_91" data-name="Caminho 91" d="M18.164,64.92,5.37,77.812a1.74,1.74,0,0,0,1.036-.259l15.763-8.632Z" transform="translate(-4.4 -52.087)" fill="none" stroke="#2f3849" stroke-miterlimit="10" stroke-width="2"/>
      <path id="Caminho_92" data-name="Caminho 92" d="M18.132,13.349l4-4.031L6.374.72A1.518,1.518,0,0,0,5.33.542Z" transform="translate(-4.368 -0.516)" fill="none" stroke="#2f3849" stroke-miterlimit="10" stroke-width="2"/>
      <path id="Caminho_93" data-name="Caminho 93" d="M14.264,13.456,1.462.65C.932.768.5,1.226.5,2.144V24.81c0,.867.341,1.476.97,1.538Z" transform="translate(-0.5 -0.623)" fill="none" stroke="#2f3849" stroke-miterlimit="10" stroke-width="2"/>
    </g>
  </g>
</svg>
